M48
;DRILL file {KiCad 4.0.7-e2-6376~61~ubuntu18.04.1} date Wed Jan  8 18:11:30 2020
;FORMAT={-:-/ absolute / inch / decimal}
FMAT,2
INCH,TZ
T1C0.016
T2C0.030
T3C0.039
T4C0.047
T5C0.035
T6C0.122
%
G90
G05
M72
T1
X3.4434Y-3.5116
X3.445Y-3.575
X3.4724Y-3.5466
X3.5275Y-3.7969
X3.5924Y-4.6206
X4.1544Y-2.8776
X4.1798Y-4.16
X4.3684Y-3.8456
X4.3784Y-4.6276
X4.3814Y-4.0026
X4.4044Y-5.4866
X4.4448Y-4.2182
X4.49Y-4.215
X4.5289Y-4.0387
X4.5504Y-4.1916
X4.5754Y-4.223
X4.5874Y-3.0326
X4.6254Y-4.0946
X4.742Y-5.0899
X4.7755Y-4.2851
X4.807Y-3.8875
X4.8188Y-4.2851
X4.8377Y-4.1005
X4.9487Y-3.2064
X5.0735Y-4.1438
X5.2624Y-4.3876
X5.2637Y-3.1276
X5.3524Y-4.0696
X5.4448Y-3.8599
X5.7477Y-3.0841
X5.7755Y-3.7969
T2
X3.395Y-3.91
X3.395Y-4.41
X3.495Y-3.91
X3.495Y-4.41
X3.595Y-3.91
X3.595Y-4.41
X3.695Y-3.91
X3.695Y-4.41
X3.795Y-3.91
X3.795Y-4.41
X3.895Y-3.91
X3.895Y-4.41
X3.995Y-3.91
X3.995Y-4.41
X4.095Y-3.91
X4.095Y-4.41
T3
X2.6584Y-3.5926
X2.6584Y-3.7894
X2.6584Y-4.0226
X2.6584Y-4.2194
X2.66Y-4.76
X2.66Y-4.9569
X2.67Y-5.49
X2.67Y-5.6869
X3.25Y-5.1717
X3.25Y-5.2717
X3.35Y-5.1717
X3.35Y-5.2717
X3.45Y-5.1717
X3.45Y-5.2717
X3.55Y-5.1717
X3.55Y-5.2717
X3.65Y-5.1717
X3.65Y-5.2717
X3.7004Y-6.0026
X3.75Y-5.1717
X3.75Y-5.2717
X3.85Y-5.1717
X3.85Y-5.2717
X3.875Y-4.55
X3.875Y-4.65
X3.8973Y-6.0026
X3.95Y-5.1717
X3.95Y-5.2717
X3.975Y-4.55
X3.975Y-4.65
X4.05Y-5.1717
X4.05Y-5.2717
X4.075Y-4.55
X4.075Y-4.65
X4.15Y-5.1717
X4.15Y-5.2717
X4.17Y-3.03
X4.17Y-3.13
X4.22Y-3.765
X4.25Y-5.1717
X4.25Y-5.2717
X4.32Y-3.765
X4.35Y-5.1717
X4.35Y-5.2717
X4.45Y-5.1717
X4.45Y-5.2717
X4.55Y-5.1717
X4.55Y-5.2717
X4.65Y-5.1717
X4.65Y-5.2717
X4.67Y-3.625
X4.67Y-3.725
X4.75Y-5.1717
X4.75Y-5.2717
X4.822Y-3.5585
X4.822Y-3.6585
X4.822Y-3.7585
X4.85Y-5.1717
X4.85Y-5.2717
X4.86Y-4.39
X4.9181Y-3.05
X4.95Y-5.1717
X4.95Y-5.2717
X4.96Y-4.39
X5.05Y-5.1717
X5.05Y-5.2717
X5.06Y-4.39
X5.115Y-3.05
X5.1234Y-4.7051
X5.1234Y-4.8051
X5.1434Y-3.3226
X5.1434Y-3.4226
X5.1434Y-3.5226
X5.15Y-5.1717
X5.15Y-5.2717
X5.21Y-5.98
X5.21Y-6.08
X5.71Y-3.4531
X5.71Y-3.65
T4
X5.71Y-3.9463
X5.71Y-4.1431
X5.71Y-4.34
X5.71Y-4.6363
X5.71Y-4.8331
X5.71Y-5.03
X5.71Y-5.3463
X5.71Y-5.5431
X5.71Y-5.74
T5
X3.3268Y-3.0204
X3.5Y-3.0204
T6
X3.0583Y-3.2925
X3.0583Y-5.2217
X5.3417Y-3.2925
X5.3417Y-5.2217
T0
M30
