G04 #@! TF.FileFunction,Soldermask,Top*
%FSLAX46Y46*%
G04 Gerber Fmt 4.6, Leading zero omitted, Abs format (unit mm)*
G04 Created by KiCad (PCBNEW 4.0.7-e2-6376~61~ubuntu18.04.1) date Wed Jan  8 18:11:24 2020*
%MOMM*%
%LPD*%
G01*
G04 APERTURE LIST*
%ADD10C,0.100000*%
%ADD11O,1.900000X2.400000*%
%ADD12R,1.900000X2.400000*%
%ADD13C,6.600000*%
%ADD14R,1.300000X2.100000*%
%ADD15R,4.900000X2.400000*%
%ADD16R,2.900000X2.200000*%
%ADD17R,2.580000X2.000000*%
%ADD18R,0.950000X2.400000*%
%ADD19R,2.400000X0.950000*%
%ADD20C,3.400000*%
%ADD21R,3.400000X3.400000*%
%ADD22C,2.400000*%
%ADD23R,2.400000X2.400000*%
%ADD24R,2.100000X2.100000*%
%ADD25O,2.100000X2.100000*%
%ADD26R,1.200000X2.300000*%
%ADD27R,1.250000X0.700000*%
%ADD28R,0.700000X1.250000*%
%ADD29R,2.080000X2.080000*%
%ADD30R,1.370000X1.670000*%
%ADD31R,1.300000X1.200000*%
%ADD32R,1.200000X1.300000*%
%ADD33R,2.100000X1.300000*%
%ADD34R,4.100000X1.380000*%
%ADD35R,2.600000X1.600000*%
%ADD36R,6.800000X6.200000*%
%ADD37R,1.600000X1.600000*%
%ADD38C,1.924000*%
%ADD39R,2.000000X3.900000*%
%ADD40R,3.900000X2.000000*%
%ADD41R,1.400000X1.650000*%
%ADD42R,1.650000X1.400000*%
%ADD43R,1.300000X1.600000*%
%ADD44R,1.600000X1.300000*%
%ADD45R,0.900000X2.700000*%
%ADD46R,2.400000X2.900000*%
%ADD47C,1.300000*%
%ADD48R,2.400000X4.900000*%
G04 APERTURE END LIST*
D10*
D11*
X82550000Y-133900000D03*
X82550000Y-131360000D03*
X85090000Y-133900000D03*
X85090000Y-131360000D03*
X87630000Y-133900000D03*
X87630000Y-131360000D03*
X90170000Y-133900000D03*
X90170000Y-131360000D03*
X92710000Y-133900000D03*
X92710000Y-131360000D03*
X95250000Y-133900000D03*
X95250000Y-131360000D03*
X97790000Y-133900000D03*
X97790000Y-131360000D03*
X100330000Y-133900000D03*
X100330000Y-131360000D03*
X102870000Y-133900000D03*
X102870000Y-131360000D03*
X105410000Y-133900000D03*
X105410000Y-131360000D03*
X107950000Y-133900000D03*
X107950000Y-131360000D03*
X110490000Y-133900000D03*
X110490000Y-131360000D03*
X113030000Y-133900000D03*
X113030000Y-131360000D03*
X115570000Y-133900000D03*
X115570000Y-131360000D03*
X118110000Y-133900000D03*
X118110000Y-131360000D03*
X120650000Y-133900000D03*
X120650000Y-131360000D03*
X123190000Y-133900000D03*
X123190000Y-131360000D03*
X125730000Y-133900000D03*
X125730000Y-131360000D03*
X128270000Y-133900000D03*
X128270000Y-131360000D03*
X130810000Y-133900000D03*
D12*
X130810000Y-131360000D03*
D13*
X135680000Y-83630000D03*
X77680000Y-83630000D03*
X77680000Y-132630000D03*
X135680000Y-132630000D03*
D14*
X140282000Y-78740000D03*
X143182000Y-78740000D03*
X148857000Y-81091000D03*
X145957000Y-81091000D03*
D15*
X112931000Y-119572000D03*
X121431000Y-119572000D03*
D16*
X122674000Y-150433000D03*
X126674000Y-150433000D03*
D17*
X114064000Y-125730000D03*
X104884000Y-125730000D03*
D18*
X109665000Y-111564000D03*
X110465000Y-111564000D03*
X111265000Y-111564000D03*
X112065000Y-111564000D03*
X112865000Y-111564000D03*
X113665000Y-111564000D03*
X114465000Y-111564000D03*
X115265000Y-111564000D03*
X116065000Y-111564000D03*
X116865000Y-111564000D03*
X117665000Y-111564000D03*
D19*
X119565000Y-109664000D03*
X119565000Y-108864000D03*
X119565000Y-108064000D03*
X119565000Y-107264000D03*
X119565000Y-106464000D03*
X119565000Y-105664000D03*
X119565000Y-104864000D03*
X119565000Y-104064000D03*
X119565000Y-103264000D03*
X119565000Y-102464000D03*
X119565000Y-101664000D03*
D18*
X117665000Y-99764000D03*
X116865000Y-99764000D03*
X116065000Y-99764000D03*
X115265000Y-99764000D03*
X114465000Y-99764000D03*
X113665000Y-99764000D03*
X112865000Y-99764000D03*
X112065000Y-99764000D03*
X111265000Y-99764000D03*
X110465000Y-99764000D03*
X109665000Y-99764000D03*
D19*
X107765000Y-101664000D03*
X107765000Y-102464000D03*
X107765000Y-103264000D03*
X107765000Y-104064000D03*
X107765000Y-104864000D03*
X107765000Y-105664000D03*
X107765000Y-106464000D03*
X107765000Y-107264000D03*
X107765000Y-108064000D03*
X107765000Y-108864000D03*
X107765000Y-109664000D03*
D20*
X145034000Y-135796000D03*
X145034000Y-140796000D03*
D21*
X145034000Y-145796000D03*
D20*
X145034000Y-117762000D03*
X145034000Y-122762000D03*
D21*
X145034000Y-127762000D03*
D22*
X124921000Y-77470000D03*
D23*
X129921000Y-77470000D03*
D22*
X67524000Y-107173000D03*
D23*
X67524000Y-102173000D03*
D22*
X67524000Y-96251000D03*
D23*
X67524000Y-91251000D03*
D24*
X98425000Y-118110000D03*
D25*
X98425000Y-115570000D03*
X100965000Y-118110000D03*
X100965000Y-115570000D03*
X103505000Y-118110000D03*
X103505000Y-115570000D03*
D26*
X83693000Y-92562000D03*
X84963000Y-92562000D03*
X86233000Y-92562000D03*
X87503000Y-92562000D03*
X88773000Y-92562000D03*
X90043000Y-92562000D03*
X91313000Y-92562000D03*
X92583000Y-92562000D03*
X92583000Y-86762000D03*
X91313000Y-86762000D03*
X90043000Y-86762000D03*
X88773000Y-86762000D03*
X87503000Y-86762000D03*
X86233000Y-86762000D03*
X84963000Y-86762000D03*
X83693000Y-86762000D03*
D22*
X67818000Y-144446000D03*
D23*
X67818000Y-139446000D03*
D22*
X145034000Y-87710000D03*
D23*
X145034000Y-92710000D03*
D20*
X145034000Y-100236000D03*
X145034000Y-105236000D03*
D21*
X145034000Y-110236000D03*
D24*
X130643000Y-84393000D03*
D25*
X130643000Y-86933000D03*
X130643000Y-89473000D03*
D27*
X116660000Y-81419000D03*
X116660000Y-81919000D03*
X116660000Y-82419000D03*
X116660000Y-82919000D03*
D28*
X117360000Y-83619000D03*
X117860000Y-83619000D03*
X118360000Y-83619000D03*
X118860000Y-83619000D03*
D27*
X119560000Y-82919000D03*
X119560000Y-82419000D03*
X119560000Y-81919000D03*
X119560000Y-81419000D03*
D28*
X118860000Y-80719000D03*
X118360000Y-80719000D03*
X117860000Y-80719000D03*
X117360000Y-80719000D03*
D29*
X118110000Y-82169000D03*
D24*
X105918000Y-76962000D03*
D25*
X105918000Y-79502000D03*
D22*
X67564000Y-125904000D03*
D23*
X67564000Y-120904000D03*
D24*
X128524000Y-111506000D03*
D25*
X125984000Y-111506000D03*
X123444000Y-111506000D03*
D24*
X132334000Y-154432000D03*
D25*
X132334000Y-151892000D03*
D30*
X101692000Y-122112000D03*
X100412000Y-122112000D03*
D24*
X130135000Y-119508500D03*
D25*
X130135000Y-122048500D03*
D24*
X118618000Y-92075000D03*
D25*
X118618000Y-94615000D03*
D24*
X122478800Y-95465900D03*
D25*
X122478800Y-92925900D03*
X122478800Y-90385900D03*
D24*
X109728000Y-95631000D03*
D25*
X107188000Y-95631000D03*
D22*
X98990800Y-152465000D03*
D23*
X93990800Y-152465000D03*
D31*
X143295500Y-73473500D03*
X143295500Y-75373500D03*
X145295500Y-74423500D03*
X139303000Y-89977000D03*
X139303000Y-88077000D03*
X137303000Y-89027000D03*
D32*
X116266000Y-141494000D03*
X114366000Y-141494000D03*
X115316000Y-143494000D03*
X114366000Y-139684000D03*
X116266000Y-139684000D03*
X115316000Y-137684000D03*
D14*
X147754000Y-78740000D03*
X144854000Y-78740000D03*
X100216000Y-139384000D03*
X97316000Y-139384000D03*
X94691500Y-145124400D03*
X91791500Y-145124400D03*
X96401600Y-145124400D03*
X99301600Y-145124400D03*
X90204000Y-121096000D03*
X93104000Y-121096000D03*
X138610000Y-78740000D03*
X135710000Y-78740000D03*
X110924000Y-143510000D03*
X108024000Y-143510000D03*
X107349000Y-139384000D03*
X110249000Y-139384000D03*
X112683000Y-87060000D03*
X115583000Y-87060000D03*
X130228000Y-95250000D03*
X127328000Y-95250000D03*
X130228000Y-97536000D03*
X127328000Y-97536000D03*
D33*
X96774000Y-76888000D03*
X96774000Y-73988000D03*
D14*
X130228000Y-99822000D03*
X127328000Y-99822000D03*
X130228000Y-102108000D03*
X127328000Y-102108000D03*
X74456000Y-139511000D03*
X77356000Y-139511000D03*
X105844000Y-143510000D03*
X102944000Y-143510000D03*
X92744000Y-127065000D03*
X95644000Y-127065000D03*
X94475600Y-101690400D03*
X91575600Y-101690400D03*
X129466000Y-105156000D03*
X126566000Y-105156000D03*
D33*
X136967600Y-72833800D03*
X136967600Y-75733800D03*
D14*
X143523000Y-83631000D03*
X140623000Y-83631000D03*
D33*
X81534000Y-86942000D03*
X81534000Y-89842000D03*
X138644000Y-102120000D03*
X138644000Y-105020000D03*
X138644000Y-123308000D03*
X138644000Y-120408000D03*
X138430000Y-138758000D03*
X138430000Y-141658000D03*
X138644000Y-107200000D03*
X138644000Y-110100000D03*
X138644000Y-118228000D03*
X138644000Y-115328000D03*
X138430000Y-143330000D03*
X138430000Y-146230000D03*
D14*
X126653000Y-146242000D03*
X129553000Y-146242000D03*
X126566000Y-107950000D03*
X129466000Y-107950000D03*
X85378000Y-124271000D03*
X88278000Y-124271000D03*
X76467000Y-120969000D03*
X73567000Y-120969000D03*
D34*
X112202600Y-82014200D03*
X112202600Y-84384200D03*
D35*
X79874000Y-149104000D03*
X79874000Y-151384000D03*
X79874000Y-153664000D03*
D36*
X86174000Y-151384000D03*
D35*
X105782000Y-149358000D03*
X105782000Y-151638000D03*
X105782000Y-153918000D03*
D36*
X112082000Y-151638000D03*
D37*
X131956000Y-146242000D03*
X134156000Y-146242000D03*
X93980000Y-74084000D03*
X93980000Y-76284000D03*
X78743000Y-120969000D03*
X80943000Y-120969000D03*
X132250000Y-95250000D03*
X134450000Y-95250000D03*
X132250000Y-97536000D03*
X134450000Y-97536000D03*
X132250000Y-99822000D03*
X134450000Y-99822000D03*
X132250000Y-102108000D03*
X134450000Y-102108000D03*
X133368000Y-108012000D03*
X133368000Y-105812000D03*
X140485500Y-75396500D03*
X140485500Y-73196500D03*
X139830000Y-81014800D03*
X142030000Y-81014800D03*
D14*
X92363000Y-139384000D03*
X95263000Y-139384000D03*
D38*
X86233000Y-112014000D03*
X96393000Y-112014000D03*
X98933000Y-112014000D03*
X88773000Y-112014000D03*
X91313000Y-112014000D03*
X93853000Y-112014000D03*
X101473000Y-112014000D03*
X104013000Y-112014000D03*
X86233000Y-99314000D03*
X88773000Y-99314000D03*
X91313000Y-99314000D03*
X93853000Y-99314000D03*
X96393000Y-99314000D03*
X98933000Y-99314000D03*
X101473000Y-99314000D03*
X104013000Y-99314000D03*
D39*
X121158000Y-143924000D03*
X121158000Y-138524000D03*
D40*
X145052400Y-153404800D03*
X139652400Y-153404800D03*
D41*
X120848000Y-87060000D03*
X118848000Y-87060000D03*
D40*
X113719000Y-74741000D03*
X119119000Y-74741000D03*
D41*
X95448000Y-124271000D03*
X93448000Y-124271000D03*
X98369000Y-122112000D03*
X96369000Y-122112000D03*
X115101500Y-115762000D03*
X117101500Y-115762000D03*
X121483000Y-123445500D03*
X119483000Y-123445500D03*
D42*
X112776000Y-94472000D03*
X112776000Y-92472000D03*
X115316000Y-94472000D03*
X115316000Y-92472000D03*
D41*
X102211000Y-105411500D03*
X104211000Y-105411500D03*
X111228000Y-115762000D03*
X113228000Y-115762000D03*
D42*
X124166000Y-107364000D03*
X124166000Y-105364000D03*
D39*
X79502000Y-103726000D03*
X79502000Y-109126000D03*
D42*
X135977000Y-104602000D03*
X135977000Y-106602000D03*
X135636000Y-120126000D03*
X135636000Y-118126000D03*
X135596000Y-140924000D03*
X135596000Y-142924000D03*
D41*
X91162000Y-95569000D03*
X93162000Y-95569000D03*
D42*
X100848800Y-85704400D03*
X100848800Y-87704400D03*
D41*
X86380200Y-95416600D03*
X84380200Y-95416600D03*
D42*
X83716500Y-84504000D03*
X83716500Y-82504000D03*
D43*
X102094400Y-139409400D03*
X105394400Y-139409400D03*
D44*
X102108000Y-73788000D03*
X102108000Y-77088000D03*
X99568000Y-77088000D03*
X99568000Y-73788000D03*
D43*
X98386000Y-126938000D03*
X101686000Y-126938000D03*
D44*
X134199000Y-76137000D03*
X134199000Y-72837000D03*
D43*
X149184000Y-83631000D03*
X145884000Y-83631000D03*
D44*
X102108000Y-79122000D03*
X102108000Y-82422000D03*
D45*
X88301000Y-79319000D03*
X87501000Y-79319000D03*
X86701000Y-79319000D03*
X85901000Y-79319000D03*
X85101000Y-79319000D03*
D46*
X91151000Y-79219000D03*
X91151000Y-73719000D03*
X82251000Y-79219000D03*
X82251000Y-73719000D03*
D47*
X88901000Y-76719000D03*
X84501000Y-76719000D03*
D48*
X96734000Y-94231000D03*
X96734000Y-85731000D03*
M02*
