G04 #@! TF.FileFunction,Soldermask,Bot*
%FSLAX46Y46*%
G04 Gerber Fmt 4.6, Leading zero omitted, Abs format (unit mm)*
G04 Created by KiCad (PCBNEW 4.0.7-e2-6376~61~ubuntu18.04.1) date Wed Jan  8 18:11:24 2020*
%MOMM*%
%LPD*%
G01*
G04 APERTURE LIST*
%ADD10C,0.100000*%
%ADD11O,1.900000X2.400000*%
%ADD12R,1.900000X2.400000*%
%ADD13C,6.600000*%
%ADD14C,3.400000*%
%ADD15R,3.400000X3.400000*%
%ADD16C,2.400000*%
%ADD17R,2.400000X2.400000*%
%ADD18R,2.100000X2.100000*%
%ADD19O,2.100000X2.100000*%
%ADD20C,1.924000*%
%ADD21C,1.300000*%
G04 APERTURE END LIST*
D10*
D11*
X82550000Y-133900000D03*
X82550000Y-131360000D03*
X85090000Y-133900000D03*
X85090000Y-131360000D03*
X87630000Y-133900000D03*
X87630000Y-131360000D03*
X90170000Y-133900000D03*
X90170000Y-131360000D03*
X92710000Y-133900000D03*
X92710000Y-131360000D03*
X95250000Y-133900000D03*
X95250000Y-131360000D03*
X97790000Y-133900000D03*
X97790000Y-131360000D03*
X100330000Y-133900000D03*
X100330000Y-131360000D03*
X102870000Y-133900000D03*
X102870000Y-131360000D03*
X105410000Y-133900000D03*
X105410000Y-131360000D03*
X107950000Y-133900000D03*
X107950000Y-131360000D03*
X110490000Y-133900000D03*
X110490000Y-131360000D03*
X113030000Y-133900000D03*
X113030000Y-131360000D03*
X115570000Y-133900000D03*
X115570000Y-131360000D03*
X118110000Y-133900000D03*
X118110000Y-131360000D03*
X120650000Y-133900000D03*
X120650000Y-131360000D03*
X123190000Y-133900000D03*
X123190000Y-131360000D03*
X125730000Y-133900000D03*
X125730000Y-131360000D03*
X128270000Y-133900000D03*
X128270000Y-131360000D03*
X130810000Y-133900000D03*
D12*
X130810000Y-131360000D03*
D13*
X135680000Y-83630000D03*
X77680000Y-83630000D03*
X77680000Y-132630000D03*
X135680000Y-132630000D03*
D14*
X145034000Y-135796000D03*
X145034000Y-140796000D03*
D15*
X145034000Y-145796000D03*
D14*
X145034000Y-117762000D03*
X145034000Y-122762000D03*
D15*
X145034000Y-127762000D03*
D16*
X124921000Y-77470000D03*
D17*
X129921000Y-77470000D03*
D16*
X67524000Y-107173000D03*
D17*
X67524000Y-102173000D03*
D16*
X67524000Y-96251000D03*
D17*
X67524000Y-91251000D03*
D18*
X98425000Y-118110000D03*
D19*
X98425000Y-115570000D03*
X100965000Y-118110000D03*
X100965000Y-115570000D03*
X103505000Y-118110000D03*
X103505000Y-115570000D03*
D16*
X67818000Y-144446000D03*
D17*
X67818000Y-139446000D03*
D16*
X145034000Y-87710000D03*
D17*
X145034000Y-92710000D03*
D14*
X145034000Y-100236000D03*
X145034000Y-105236000D03*
D15*
X145034000Y-110236000D03*
D18*
X130643000Y-84393000D03*
D19*
X130643000Y-86933000D03*
X130643000Y-89473000D03*
D18*
X105918000Y-76962000D03*
D19*
X105918000Y-79502000D03*
D16*
X67564000Y-125904000D03*
D17*
X67564000Y-120904000D03*
D18*
X128524000Y-111506000D03*
D19*
X125984000Y-111506000D03*
X123444000Y-111506000D03*
D18*
X132334000Y-154432000D03*
D19*
X132334000Y-151892000D03*
D18*
X130135000Y-119508500D03*
D19*
X130135000Y-122048500D03*
D18*
X118618000Y-92075000D03*
D19*
X118618000Y-94615000D03*
D18*
X122478800Y-95465900D03*
D19*
X122478800Y-92925900D03*
X122478800Y-90385900D03*
D18*
X109728000Y-95631000D03*
D19*
X107188000Y-95631000D03*
D16*
X98990800Y-152465000D03*
D17*
X93990800Y-152465000D03*
D20*
X86233000Y-112014000D03*
X96393000Y-112014000D03*
X98933000Y-112014000D03*
X88773000Y-112014000D03*
X91313000Y-112014000D03*
X93853000Y-112014000D03*
X101473000Y-112014000D03*
X104013000Y-112014000D03*
X86233000Y-99314000D03*
X88773000Y-99314000D03*
X91313000Y-99314000D03*
X93853000Y-99314000D03*
X96393000Y-99314000D03*
X98933000Y-99314000D03*
X101473000Y-99314000D03*
X104013000Y-99314000D03*
D21*
X88901000Y-76719000D03*
X84501000Y-76719000D03*
M02*
