G04 #@! TF.FileFunction,Copper,L1,Top,Signal*
%FSLAX46Y46*%
G04 Gerber Fmt 4.6, Leading zero omitted, Abs format (unit mm)*
G04 Created by KiCad (PCBNEW 4.0.7-e2-6376~61~ubuntu18.04.1) date Wed Jan  8 18:11:24 2020*
%MOMM*%
%LPD*%
G01*
G04 APERTURE LIST*
%ADD10C,0.100000*%
%ADD11O,1.500000X2.000000*%
%ADD12R,1.500000X2.000000*%
%ADD13C,6.200000*%
%ADD14R,0.900000X1.700000*%
%ADD15R,4.500000X2.000000*%
%ADD16R,2.500000X1.800000*%
%ADD17R,2.180000X1.600000*%
%ADD18R,0.550000X2.000000*%
%ADD19R,2.000000X0.550000*%
%ADD20C,3.000000*%
%ADD21R,3.000000X3.000000*%
%ADD22C,2.000000*%
%ADD23R,2.000000X2.000000*%
%ADD24R,1.700000X1.700000*%
%ADD25O,1.700000X1.700000*%
%ADD26R,0.800000X1.900000*%
%ADD27R,0.850000X0.300000*%
%ADD28R,0.300000X0.850000*%
%ADD29R,1.680000X1.680000*%
%ADD30R,0.970000X1.270000*%
%ADD31R,0.900000X0.800000*%
%ADD32R,0.800000X0.900000*%
%ADD33R,1.700000X0.900000*%
%ADD34R,3.700000X0.980000*%
%ADD35R,2.200000X1.200000*%
%ADD36R,6.400000X5.800000*%
%ADD37R,3.050000X2.750000*%
%ADD38R,1.200000X1.200000*%
%ADD39C,1.524000*%
%ADD40R,1.600000X3.500000*%
%ADD41R,3.500000X1.600000*%
%ADD42R,1.000000X1.250000*%
%ADD43R,1.250000X1.000000*%
%ADD44R,0.900000X1.200000*%
%ADD45R,1.200000X0.900000*%
%ADD46R,0.500000X2.300000*%
%ADD47R,2.000000X2.500000*%
%ADD48R,2.000000X4.500000*%
%ADD49C,0.600000*%
%ADD50C,0.250000*%
%ADD51C,0.500000*%
%ADD52C,1.000000*%
%ADD53C,2.000000*%
G04 APERTURE END LIST*
D10*
D11*
X82550000Y-133900000D03*
X82550000Y-131360000D03*
X85090000Y-133900000D03*
X85090000Y-131360000D03*
X87630000Y-133900000D03*
X87630000Y-131360000D03*
X90170000Y-133900000D03*
X90170000Y-131360000D03*
X92710000Y-133900000D03*
X92710000Y-131360000D03*
X95250000Y-133900000D03*
X95250000Y-131360000D03*
X97790000Y-133900000D03*
X97790000Y-131360000D03*
X100330000Y-133900000D03*
X100330000Y-131360000D03*
X102870000Y-133900000D03*
X102870000Y-131360000D03*
X105410000Y-133900000D03*
X105410000Y-131360000D03*
X107950000Y-133900000D03*
X107950000Y-131360000D03*
X110490000Y-133900000D03*
X110490000Y-131360000D03*
X113030000Y-133900000D03*
X113030000Y-131360000D03*
X115570000Y-133900000D03*
X115570000Y-131360000D03*
X118110000Y-133900000D03*
X118110000Y-131360000D03*
X120650000Y-133900000D03*
X120650000Y-131360000D03*
X123190000Y-133900000D03*
X123190000Y-131360000D03*
X125730000Y-133900000D03*
X125730000Y-131360000D03*
X128270000Y-133900000D03*
X128270000Y-131360000D03*
X130810000Y-133900000D03*
D12*
X130810000Y-131360000D03*
D13*
X135680000Y-83630000D03*
X77680000Y-83630000D03*
X77680000Y-132630000D03*
X135680000Y-132630000D03*
D14*
X140282000Y-78740000D03*
X143182000Y-78740000D03*
X148857000Y-81091000D03*
X145957000Y-81091000D03*
D15*
X112931000Y-119572000D03*
X121431000Y-119572000D03*
D16*
X122674000Y-150433000D03*
X126674000Y-150433000D03*
D17*
X114064000Y-125730000D03*
X104884000Y-125730000D03*
D18*
X109665000Y-111564000D03*
X110465000Y-111564000D03*
X111265000Y-111564000D03*
X112065000Y-111564000D03*
X112865000Y-111564000D03*
X113665000Y-111564000D03*
X114465000Y-111564000D03*
X115265000Y-111564000D03*
X116065000Y-111564000D03*
X116865000Y-111564000D03*
X117665000Y-111564000D03*
D19*
X119565000Y-109664000D03*
X119565000Y-108864000D03*
X119565000Y-108064000D03*
X119565000Y-107264000D03*
X119565000Y-106464000D03*
X119565000Y-105664000D03*
X119565000Y-104864000D03*
X119565000Y-104064000D03*
X119565000Y-103264000D03*
X119565000Y-102464000D03*
X119565000Y-101664000D03*
D18*
X117665000Y-99764000D03*
X116865000Y-99764000D03*
X116065000Y-99764000D03*
X115265000Y-99764000D03*
X114465000Y-99764000D03*
X113665000Y-99764000D03*
X112865000Y-99764000D03*
X112065000Y-99764000D03*
X111265000Y-99764000D03*
X110465000Y-99764000D03*
X109665000Y-99764000D03*
D19*
X107765000Y-101664000D03*
X107765000Y-102464000D03*
X107765000Y-103264000D03*
X107765000Y-104064000D03*
X107765000Y-104864000D03*
X107765000Y-105664000D03*
X107765000Y-106464000D03*
X107765000Y-107264000D03*
X107765000Y-108064000D03*
X107765000Y-108864000D03*
X107765000Y-109664000D03*
D20*
X145034000Y-135796000D03*
X145034000Y-140796000D03*
D21*
X145034000Y-145796000D03*
D20*
X145034000Y-117762000D03*
X145034000Y-122762000D03*
D21*
X145034000Y-127762000D03*
D22*
X124921000Y-77470000D03*
D23*
X129921000Y-77470000D03*
D22*
X67524000Y-107173000D03*
D23*
X67524000Y-102173000D03*
D22*
X67524000Y-96251000D03*
D23*
X67524000Y-91251000D03*
D24*
X98425000Y-118110000D03*
D25*
X98425000Y-115570000D03*
X100965000Y-118110000D03*
X100965000Y-115570000D03*
X103505000Y-118110000D03*
X103505000Y-115570000D03*
D26*
X83693000Y-92562000D03*
X84963000Y-92562000D03*
X86233000Y-92562000D03*
X87503000Y-92562000D03*
X88773000Y-92562000D03*
X90043000Y-92562000D03*
X91313000Y-92562000D03*
X92583000Y-92562000D03*
X92583000Y-86762000D03*
X91313000Y-86762000D03*
X90043000Y-86762000D03*
X88773000Y-86762000D03*
X87503000Y-86762000D03*
X86233000Y-86762000D03*
X84963000Y-86762000D03*
X83693000Y-86762000D03*
D22*
X67818000Y-144446000D03*
D23*
X67818000Y-139446000D03*
D22*
X145034000Y-87710000D03*
D23*
X145034000Y-92710000D03*
D20*
X145034000Y-100236000D03*
X145034000Y-105236000D03*
D21*
X145034000Y-110236000D03*
D24*
X130643000Y-84393000D03*
D25*
X130643000Y-86933000D03*
X130643000Y-89473000D03*
D27*
X116660000Y-81419000D03*
X116660000Y-81919000D03*
X116660000Y-82419000D03*
X116660000Y-82919000D03*
D28*
X117360000Y-83619000D03*
X117860000Y-83619000D03*
X118360000Y-83619000D03*
X118860000Y-83619000D03*
D27*
X119560000Y-82919000D03*
X119560000Y-82419000D03*
X119560000Y-81919000D03*
X119560000Y-81419000D03*
D28*
X118860000Y-80719000D03*
X118360000Y-80719000D03*
X117860000Y-80719000D03*
X117360000Y-80719000D03*
D29*
X118110000Y-82169000D03*
D24*
X105918000Y-76962000D03*
D25*
X105918000Y-79502000D03*
D22*
X67564000Y-125904000D03*
D23*
X67564000Y-120904000D03*
D24*
X128524000Y-111506000D03*
D25*
X125984000Y-111506000D03*
X123444000Y-111506000D03*
D24*
X132334000Y-154432000D03*
D25*
X132334000Y-151892000D03*
D30*
X101692000Y-122112000D03*
X100412000Y-122112000D03*
D24*
X130135000Y-119508500D03*
D25*
X130135000Y-122048500D03*
D24*
X118618000Y-92075000D03*
D25*
X118618000Y-94615000D03*
D24*
X122478800Y-95465900D03*
D25*
X122478800Y-92925900D03*
X122478800Y-90385900D03*
D24*
X109728000Y-95631000D03*
D25*
X107188000Y-95631000D03*
D22*
X98990800Y-152465000D03*
D23*
X93990800Y-152465000D03*
D31*
X143295500Y-73473500D03*
X143295500Y-75373500D03*
X145295500Y-74423500D03*
X139303000Y-89977000D03*
X139303000Y-88077000D03*
X137303000Y-89027000D03*
D32*
X116266000Y-141494000D03*
X114366000Y-141494000D03*
X115316000Y-143494000D03*
X114366000Y-139684000D03*
X116266000Y-139684000D03*
X115316000Y-137684000D03*
D14*
X147754000Y-78740000D03*
X144854000Y-78740000D03*
X100216000Y-139384000D03*
X97316000Y-139384000D03*
X94691500Y-145124400D03*
X91791500Y-145124400D03*
X96401600Y-145124400D03*
X99301600Y-145124400D03*
X90204000Y-121096000D03*
X93104000Y-121096000D03*
X138610000Y-78740000D03*
X135710000Y-78740000D03*
X110924000Y-143510000D03*
X108024000Y-143510000D03*
X107349000Y-139384000D03*
X110249000Y-139384000D03*
X112683000Y-87060000D03*
X115583000Y-87060000D03*
X130228000Y-95250000D03*
X127328000Y-95250000D03*
X130228000Y-97536000D03*
X127328000Y-97536000D03*
D33*
X96774000Y-76888000D03*
X96774000Y-73988000D03*
D14*
X130228000Y-99822000D03*
X127328000Y-99822000D03*
X130228000Y-102108000D03*
X127328000Y-102108000D03*
X74456000Y-139511000D03*
X77356000Y-139511000D03*
X105844000Y-143510000D03*
X102944000Y-143510000D03*
X92744000Y-127065000D03*
X95644000Y-127065000D03*
X94475600Y-101690400D03*
X91575600Y-101690400D03*
X129466000Y-105156000D03*
X126566000Y-105156000D03*
D33*
X136967600Y-72833800D03*
X136967600Y-75733800D03*
D14*
X143523000Y-83631000D03*
X140623000Y-83631000D03*
D33*
X81534000Y-86942000D03*
X81534000Y-89842000D03*
X138644000Y-102120000D03*
X138644000Y-105020000D03*
X138644000Y-123308000D03*
X138644000Y-120408000D03*
X138430000Y-138758000D03*
X138430000Y-141658000D03*
X138644000Y-107200000D03*
X138644000Y-110100000D03*
X138644000Y-118228000D03*
X138644000Y-115328000D03*
X138430000Y-143330000D03*
X138430000Y-146230000D03*
D14*
X126653000Y-146242000D03*
X129553000Y-146242000D03*
X126566000Y-107950000D03*
X129466000Y-107950000D03*
X85378000Y-124271000D03*
X88278000Y-124271000D03*
X76467000Y-120969000D03*
X73567000Y-120969000D03*
D34*
X112202600Y-82014200D03*
X112202600Y-84384200D03*
D35*
X79874000Y-149104000D03*
X79874000Y-151384000D03*
X79874000Y-153664000D03*
D36*
X86174000Y-151384000D03*
D37*
X87849000Y-152909000D03*
X84499000Y-149859000D03*
X87849000Y-149859000D03*
X84499000Y-152909000D03*
D35*
X105782000Y-149358000D03*
X105782000Y-151638000D03*
X105782000Y-153918000D03*
D36*
X112082000Y-151638000D03*
D37*
X113757000Y-153163000D03*
X110407000Y-150113000D03*
X113757000Y-150113000D03*
X110407000Y-153163000D03*
D38*
X131956000Y-146242000D03*
X134156000Y-146242000D03*
X93980000Y-74084000D03*
X93980000Y-76284000D03*
X78743000Y-120969000D03*
X80943000Y-120969000D03*
X132250000Y-95250000D03*
X134450000Y-95250000D03*
X132250000Y-97536000D03*
X134450000Y-97536000D03*
X132250000Y-99822000D03*
X134450000Y-99822000D03*
X132250000Y-102108000D03*
X134450000Y-102108000D03*
X133368000Y-108012000D03*
X133368000Y-105812000D03*
X140485500Y-75396500D03*
X140485500Y-73196500D03*
X139830000Y-81014800D03*
X142030000Y-81014800D03*
D14*
X92363000Y-139384000D03*
X95263000Y-139384000D03*
D39*
X86233000Y-112014000D03*
X96393000Y-112014000D03*
X98933000Y-112014000D03*
X88773000Y-112014000D03*
X91313000Y-112014000D03*
X93853000Y-112014000D03*
X101473000Y-112014000D03*
X104013000Y-112014000D03*
X86233000Y-99314000D03*
X88773000Y-99314000D03*
X91313000Y-99314000D03*
X93853000Y-99314000D03*
X96393000Y-99314000D03*
X98933000Y-99314000D03*
X101473000Y-99314000D03*
X104013000Y-99314000D03*
D40*
X121158000Y-143924000D03*
X121158000Y-138524000D03*
D41*
X145052400Y-153404800D03*
X139652400Y-153404800D03*
D42*
X120848000Y-87060000D03*
X118848000Y-87060000D03*
D41*
X113719000Y-74741000D03*
X119119000Y-74741000D03*
D42*
X95448000Y-124271000D03*
X93448000Y-124271000D03*
X98369000Y-122112000D03*
X96369000Y-122112000D03*
X115101500Y-115762000D03*
X117101500Y-115762000D03*
X121483000Y-123445500D03*
X119483000Y-123445500D03*
D43*
X112776000Y-94472000D03*
X112776000Y-92472000D03*
X115316000Y-94472000D03*
X115316000Y-92472000D03*
D42*
X102211000Y-105411500D03*
X104211000Y-105411500D03*
X111228000Y-115762000D03*
X113228000Y-115762000D03*
D43*
X124166000Y-107364000D03*
X124166000Y-105364000D03*
D40*
X79502000Y-103726000D03*
X79502000Y-109126000D03*
D43*
X135977000Y-104602000D03*
X135977000Y-106602000D03*
X135636000Y-120126000D03*
X135636000Y-118126000D03*
X135596000Y-140924000D03*
X135596000Y-142924000D03*
D42*
X91162000Y-95569000D03*
X93162000Y-95569000D03*
D43*
X100848800Y-85704400D03*
X100848800Y-87704400D03*
D42*
X86380200Y-95416600D03*
X84380200Y-95416600D03*
D43*
X83716500Y-84504000D03*
X83716500Y-82504000D03*
D44*
X102094400Y-139409400D03*
X105394400Y-139409400D03*
D45*
X102108000Y-73788000D03*
X102108000Y-77088000D03*
X99568000Y-77088000D03*
X99568000Y-73788000D03*
D44*
X98386000Y-126938000D03*
X101686000Y-126938000D03*
D45*
X134199000Y-76137000D03*
X134199000Y-72837000D03*
D44*
X149184000Y-83631000D03*
X145884000Y-83631000D03*
D45*
X102108000Y-79122000D03*
X102108000Y-82422000D03*
D46*
X88301000Y-79319000D03*
X87501000Y-79319000D03*
X86701000Y-79319000D03*
X85901000Y-79319000D03*
X85101000Y-79319000D03*
D47*
X91151000Y-79219000D03*
X91151000Y-73719000D03*
X82251000Y-79219000D03*
X82251000Y-73719000D03*
D48*
X96734000Y-94231000D03*
X96734000Y-85731000D03*
D49*
X105522400Y-73090000D03*
X111212000Y-117540000D03*
X116520600Y-77027000D03*
X106167000Y-105664000D03*
X88199600Y-90082600D03*
X110958000Y-97677200D03*
X135951600Y-103366800D03*
X111288200Y-101665000D03*
X133665600Y-111444000D03*
X120446600Y-129282400D03*
X115033800Y-102583800D03*
X89598000Y-96442000D03*
X112898000Y-107142000D03*
X87503000Y-90805000D03*
X114046000Y-107061000D03*
X87463000Y-89193600D03*
X91247600Y-117362200D03*
X133698000Y-79442000D03*
X125698000Y-81442000D03*
X122098000Y-98742000D03*
X121298000Y-108842000D03*
X145991600Y-78335600D03*
X146698000Y-96442000D03*
X138298000Y-98042000D03*
X122398000Y-108842000D03*
X117485800Y-104001800D03*
X111872400Y-139358600D03*
X122878000Y-104153000D03*
X128866000Y-105252000D03*
X116216200Y-107264000D03*
X115580800Y-106465600D03*
D50*
X88773000Y-99314000D02*
X88773000Y-98072800D01*
X84380200Y-97210600D02*
X84380200Y-95416600D01*
X84719800Y-97550200D02*
X84380200Y-97210600D01*
X88250400Y-97550200D02*
X84719800Y-97550200D01*
X88773000Y-98072800D02*
X88250400Y-97550200D01*
X83693000Y-92562000D02*
X83693000Y-93907200D01*
X83693000Y-93907200D02*
X84380200Y-94594400D01*
X84380200Y-94594400D02*
X84380200Y-95416600D01*
D51*
X143182000Y-78740000D02*
X142341200Y-78740000D01*
X142030000Y-79051200D02*
X142030000Y-81014800D01*
X142341200Y-78740000D02*
X142030000Y-79051200D01*
X137303000Y-89027000D02*
X137303000Y-87943800D01*
X137303000Y-87943800D02*
X139583800Y-85663000D01*
X139583800Y-85663000D02*
X141107800Y-85663000D01*
X141107800Y-85663000D02*
X141869800Y-84901000D01*
X141869800Y-84901000D02*
X141869800Y-82310200D01*
X141869800Y-82310200D02*
X142030000Y-82150000D01*
X142030000Y-82150000D02*
X142030000Y-81014800D01*
D50*
X117101500Y-115762000D02*
X117101500Y-121143500D01*
X119483000Y-122178800D02*
X119483000Y-123445500D01*
X118882800Y-121578600D02*
X119483000Y-122178800D01*
X117536600Y-121578600D02*
X118882800Y-121578600D01*
X117101500Y-121143500D02*
X117536600Y-121578600D01*
D51*
X91151000Y-73719000D02*
X91151000Y-73135800D01*
X91151000Y-73135800D02*
X92492200Y-71794600D01*
X105522400Y-72836000D02*
X105522400Y-73090000D01*
X104481000Y-71794600D02*
X105522400Y-72836000D01*
X92492200Y-71794600D02*
X104481000Y-71794600D01*
D52*
X132334000Y-151892000D02*
X135610200Y-151892000D01*
X137043800Y-150458400D02*
X138430000Y-150458400D01*
X135610200Y-151892000D02*
X137043800Y-150458400D01*
X138430000Y-146230000D02*
X138430000Y-150458400D01*
X138430000Y-150458400D02*
X138430000Y-150473000D01*
X139652400Y-151695400D02*
X139652400Y-153404800D01*
X138430000Y-150473000D02*
X139652400Y-151695400D01*
D50*
X104013000Y-99314000D02*
X104013000Y-93446200D01*
X104987200Y-92472000D02*
X112776000Y-92472000D01*
X104013000Y-93446200D02*
X104987200Y-92472000D01*
X118618000Y-92075000D02*
X116661800Y-92075000D01*
X116264800Y-92472000D02*
X115316000Y-92472000D01*
X116661800Y-92075000D02*
X116264800Y-92472000D01*
X114056800Y-92472000D02*
X114056800Y-95543600D01*
X113665000Y-95935400D02*
X113665000Y-99764000D01*
X114056800Y-95543600D02*
X113665000Y-95935400D01*
X112776000Y-92472000D02*
X114056800Y-92472000D01*
X114056800Y-92472000D02*
X115316000Y-92472000D01*
D51*
X82251000Y-79219000D02*
X85001000Y-79219000D01*
X85001000Y-79219000D02*
X85101000Y-79319000D01*
X91151000Y-79219000D02*
X93195800Y-79219000D01*
X93980000Y-78434800D02*
X93980000Y-76284000D01*
X93195800Y-79219000D02*
X93980000Y-78434800D01*
X91151000Y-73719000D02*
X91151000Y-79219000D01*
X82251000Y-73719000D02*
X91151000Y-73719000D01*
X82251000Y-73719000D02*
X82251000Y-79219000D01*
D50*
X83716500Y-82504000D02*
X84526000Y-82504000D01*
X85101000Y-81929000D02*
X85101000Y-79319000D01*
X84526000Y-82504000D02*
X85101000Y-81929000D01*
X92606500Y-97575600D02*
X99680400Y-97575600D01*
X100848800Y-96407200D02*
X100848800Y-87704400D01*
X99680400Y-97575600D02*
X100848800Y-96407200D01*
X93162000Y-95569000D02*
X93162000Y-96664500D01*
X92263600Y-101690400D02*
X91575600Y-101690400D01*
X92606500Y-101347500D02*
X92263600Y-101690400D01*
X92606500Y-97220000D02*
X92606500Y-97575600D01*
X92606500Y-97575600D02*
X92606500Y-101347500D01*
X93162000Y-96664500D02*
X92606500Y-97220000D01*
X114768000Y-123445500D02*
X111339000Y-123445500D01*
X110323000Y-117540000D02*
X111212000Y-117540000D01*
X109497500Y-118365500D02*
X110323000Y-117540000D01*
X109497500Y-121604000D02*
X109497500Y-118365500D01*
X111339000Y-123445500D02*
X109497500Y-121604000D01*
X113228000Y-116730500D02*
X113228000Y-115762000D01*
X111212000Y-117540000D02*
X111529500Y-117222500D01*
X111529500Y-117222500D02*
X112736000Y-117222500D01*
X112736000Y-117222500D02*
X113228000Y-116730500D01*
X119483000Y-123445500D02*
X119483000Y-124922000D01*
X130135000Y-124588500D02*
X130135000Y-122048500D01*
X129055500Y-125668000D02*
X130135000Y-124588500D01*
X120229000Y-125668000D02*
X129055500Y-125668000D01*
X119483000Y-124922000D02*
X120229000Y-125668000D01*
X119483000Y-123445500D02*
X114768000Y-123445500D01*
X114064000Y-124149500D02*
X114064000Y-125730000D01*
X114768000Y-123445500D02*
X114064000Y-124149500D01*
X106167000Y-105664000D02*
X104463500Y-105664000D01*
X104463500Y-105664000D02*
X104211000Y-105411500D01*
X113665000Y-111564000D02*
X113665000Y-115325000D01*
X113665000Y-115325000D02*
X113228000Y-115762000D01*
X118860000Y-84619000D02*
X118860000Y-87048000D01*
X118860000Y-87048000D02*
X118848000Y-87060000D01*
X118618000Y-92075000D02*
X118618000Y-87290000D01*
X118618000Y-87290000D02*
X118848000Y-87060000D01*
X142009500Y-74423500D02*
X145295500Y-74423500D01*
X141819000Y-74233000D02*
X142009500Y-74423500D01*
X141819000Y-73598000D02*
X141819000Y-74233000D01*
X141417500Y-73196500D02*
X141819000Y-73598000D01*
X140485500Y-73196500D02*
X141417500Y-73196500D01*
X134156000Y-143999000D02*
X134156000Y-146242000D01*
X135231000Y-142924000D02*
X134156000Y-143999000D01*
X135596000Y-142924000D02*
X135231000Y-142924000D01*
X135636000Y-115976000D02*
X135636000Y-118126000D01*
X136284000Y-115328000D02*
X135636000Y-115976000D01*
X138644000Y-115328000D02*
X136284000Y-115328000D01*
X135977000Y-109285000D02*
X135977000Y-106602000D01*
X136792000Y-110100000D02*
X135977000Y-109285000D01*
X138644000Y-110100000D02*
X136792000Y-110100000D01*
X135072000Y-106602000D02*
X135977000Y-106602000D01*
X134282000Y-105812000D02*
X135072000Y-106602000D01*
X133368000Y-105812000D02*
X134282000Y-105812000D01*
X124166000Y-105364000D02*
X126358000Y-105364000D01*
X126358000Y-105364000D02*
X126566000Y-105156000D01*
X119565000Y-104864000D02*
X123666000Y-104864000D01*
X123666000Y-104864000D02*
X124166000Y-105364000D01*
X91575600Y-101690400D02*
X88773000Y-101690400D01*
X88987000Y-101665000D02*
X88773000Y-101665000D01*
X88798400Y-101665000D02*
X88987000Y-101665000D01*
X88773000Y-101690400D02*
X88798400Y-101665000D01*
X135636000Y-143464000D02*
X135636000Y-144494000D01*
X135636000Y-145761300D02*
X136104700Y-146230000D01*
X136104700Y-146230000D02*
X138430000Y-146230000D01*
X135636000Y-144494000D02*
X135636000Y-145761300D01*
X135636000Y-143464000D02*
X135596000Y-143424000D01*
D53*
X67143000Y-134366000D02*
X67143000Y-134558000D01*
X67818000Y-135233000D02*
X67818000Y-139446000D01*
X67143000Y-134558000D02*
X67818000Y-135233000D01*
D51*
X74456000Y-139511000D02*
X67883000Y-139511000D01*
X67883000Y-139511000D02*
X67818000Y-139446000D01*
D52*
X67892000Y-134366000D02*
X67143000Y-134366000D01*
X67143000Y-134366000D02*
X66570000Y-134366000D01*
X66570000Y-134366000D02*
X65238000Y-133034000D01*
X65238000Y-133034000D02*
X65238000Y-118937000D01*
X65238000Y-118937000D02*
X66000000Y-118175000D01*
X66000000Y-118175000D02*
X68921000Y-118175000D01*
X68921000Y-118175000D02*
X71461000Y-115635000D01*
X71461000Y-115635000D02*
X78065000Y-115635000D01*
X78065000Y-115635000D02*
X79502000Y-114198000D01*
D50*
X85378000Y-124271000D02*
X81748000Y-124271000D01*
X80943000Y-123466000D02*
X80943000Y-120969000D01*
X81748000Y-124271000D02*
X80943000Y-123466000D01*
X80943000Y-120969000D02*
X80943000Y-118767000D01*
X79502000Y-117326000D02*
X79502000Y-114198000D01*
X80943000Y-118767000D02*
X79502000Y-117326000D01*
X95250000Y-133900000D02*
X95250000Y-139371000D01*
X95250000Y-139371000D02*
X95263000Y-139384000D01*
X97316000Y-139384000D02*
X95263000Y-139384000D01*
X90170000Y-135636000D02*
X90170000Y-136757000D01*
X95263000Y-138040000D02*
X95263000Y-139384000D01*
X94575000Y-137352000D02*
X95263000Y-138040000D01*
X90765000Y-137352000D02*
X94575000Y-137352000D01*
X90170000Y-136757000D02*
X90765000Y-137352000D01*
X102944000Y-143510000D02*
X101495000Y-143510000D01*
X95263000Y-140326000D02*
X95263000Y-139384000D01*
X97369000Y-141162000D02*
X96099000Y-141162000D01*
X96099000Y-141162000D02*
X95263000Y-140326000D01*
X100671000Y-141162000D02*
X97369000Y-141162000D01*
X101179000Y-141670000D02*
X100671000Y-141162000D01*
X101179000Y-143194000D02*
X101179000Y-141670000D01*
X101495000Y-143510000D02*
X101179000Y-143194000D01*
X114064000Y-125730000D02*
X114064000Y-125370400D01*
X133368000Y-103506500D02*
X127277500Y-103506500D01*
X126566000Y-104218000D02*
X126566000Y-105156000D01*
X127277500Y-103506500D02*
X126566000Y-104218000D01*
X140485500Y-73246500D02*
X140485500Y-73471000D01*
D51*
X144854000Y-78740000D02*
X144854000Y-74865000D01*
X144854000Y-74865000D02*
X145295500Y-74423500D01*
X117360000Y-77941400D02*
X117360000Y-77841000D01*
X116546000Y-77027000D02*
X116520600Y-77027000D01*
X117360000Y-77841000D02*
X116546000Y-77027000D01*
X117360000Y-79883000D02*
X117360000Y-77941400D01*
X117360000Y-77941400D02*
X117360000Y-76500000D01*
X117360000Y-76500000D02*
X119119000Y-74741000D01*
D50*
X117860000Y-83619000D02*
X117860000Y-82419000D01*
X117860000Y-82419000D02*
X118110000Y-82169000D01*
X117860000Y-80719000D02*
X117860000Y-81919000D01*
X117860000Y-81919000D02*
X118110000Y-82169000D01*
X117860000Y-83619000D02*
X117860000Y-84774000D01*
X117860000Y-84774000D02*
X117816000Y-84774000D01*
X118360000Y-83619000D02*
X118360000Y-84774000D01*
X118360000Y-84774000D02*
X118451000Y-84774000D01*
X117360000Y-83619000D02*
X117360000Y-84699000D01*
X117360000Y-84699000D02*
X117435000Y-84774000D01*
X117435000Y-84774000D02*
X117816000Y-84774000D01*
X118860000Y-84619000D02*
X118860000Y-83619000D01*
X118705000Y-84774000D02*
X118860000Y-84619000D01*
X117816000Y-84774000D02*
X118451000Y-84774000D01*
X118451000Y-84774000D02*
X118705000Y-84774000D01*
X117860000Y-82419000D02*
X118110000Y-82169000D01*
X134400000Y-102108000D02*
X133632000Y-102108000D01*
X133368000Y-102372000D02*
X133368000Y-103506500D01*
X133368000Y-103506500D02*
X133368000Y-104212000D01*
X133632000Y-102108000D02*
X133368000Y-102372000D01*
X133368000Y-104212000D02*
X133368000Y-105862000D01*
D52*
X79502000Y-114198000D02*
X79502000Y-109126000D01*
D51*
X137303000Y-89027000D02*
X131089000Y-89027000D01*
X131089000Y-89027000D02*
X130643000Y-89473000D01*
D52*
X79502000Y-109126000D02*
X83914000Y-109126000D01*
X88773000Y-104267000D02*
X88773000Y-101665000D01*
X88773000Y-101665000D02*
X88773000Y-99314000D01*
X83914000Y-109126000D02*
X88773000Y-104267000D01*
D50*
X107950000Y-133900000D02*
X107950000Y-133858000D01*
D51*
X126566000Y-105156000D02*
X126566000Y-104784000D01*
X134400000Y-102108000D02*
X134302000Y-102108000D01*
D50*
X118360000Y-82419000D02*
X118110000Y-82169000D01*
X134400000Y-97536000D02*
X134400000Y-99822000D01*
X134400000Y-95250000D02*
X134400000Y-97536000D01*
X134400000Y-102108000D02*
X134400000Y-99822000D01*
X128270000Y-111252000D02*
X128524000Y-111506000D01*
X128270000Y-106172000D02*
X128270000Y-111252000D01*
X126566000Y-105156000D02*
X127254000Y-105156000D01*
X127254000Y-105156000D02*
X128270000Y-106172000D01*
X122936000Y-140302000D02*
X121158000Y-138524000D01*
X122936000Y-146050000D02*
X122936000Y-140302000D01*
X122428000Y-146558000D02*
X122936000Y-146050000D01*
X119380000Y-146558000D02*
X122428000Y-146558000D01*
X116316000Y-143494000D02*
X119380000Y-146558000D01*
X115316000Y-143494000D02*
X116316000Y-143494000D01*
D52*
X82550000Y-129286000D02*
X82550000Y-131360000D01*
X81788000Y-128524000D02*
X82550000Y-129286000D01*
X69596000Y-128524000D02*
X81788000Y-128524000D01*
X67892000Y-130228000D02*
X69596000Y-128524000D01*
X67892000Y-134366000D02*
X67892000Y-130228000D01*
D50*
X122089000Y-129921000D02*
X120650000Y-131360000D01*
X123952000Y-129921000D02*
X122089000Y-129921000D01*
X124460000Y-130429000D02*
X123952000Y-129921000D01*
X124460000Y-132588000D02*
X124460000Y-130429000D01*
X125730000Y-133858000D02*
X124460000Y-132588000D01*
X125730000Y-133900000D02*
X125730000Y-133858000D01*
X120650000Y-130556000D02*
X120650000Y-131360000D01*
X119955000Y-129861000D02*
X120650000Y-130556000D01*
X117408000Y-129861000D02*
X119955000Y-129861000D01*
X116840000Y-130429000D02*
X117408000Y-129861000D01*
X116840000Y-132715000D02*
X116840000Y-130429000D01*
X115655000Y-133900000D02*
X116840000Y-132715000D01*
X115570000Y-133900000D02*
X115655000Y-133900000D01*
X105664000Y-79756000D02*
X105918000Y-79502000D01*
X117360000Y-80719000D02*
X117360000Y-79883000D01*
X117860000Y-80141000D02*
X117860000Y-80719000D01*
X117602000Y-79883000D02*
X117860000Y-80141000D01*
X117360000Y-79883000D02*
X117602000Y-79883000D01*
X117360000Y-79883000D02*
X117348000Y-79883000D01*
X141531000Y-110162000D02*
X142367000Y-110998000D01*
X138430000Y-110162000D02*
X141531000Y-110162000D01*
X141679000Y-115390000D02*
X142367000Y-116078000D01*
X138430000Y-115390000D02*
X141679000Y-115390000D01*
D52*
X142060000Y-146230000D02*
X138430000Y-146230000D01*
X146337000Y-135796000D02*
X147320000Y-136779000D01*
X147320000Y-136779000D02*
X147320000Y-142494000D01*
X147320000Y-142494000D02*
X146558000Y-143256000D01*
X146558000Y-143256000D02*
X142875000Y-143256000D01*
X142875000Y-143256000D02*
X142240000Y-143891000D01*
X142240000Y-143891000D02*
X142240000Y-146050000D01*
X142240000Y-146050000D02*
X142060000Y-146230000D01*
X145034000Y-135796000D02*
X146337000Y-135796000D01*
X143289000Y-135796000D02*
X145034000Y-135796000D01*
X142494000Y-135001000D02*
X143289000Y-135796000D01*
X142494000Y-125730000D02*
X142494000Y-135001000D01*
X143002000Y-125222000D02*
X142494000Y-125730000D01*
X146558000Y-125222000D02*
X143002000Y-125222000D01*
X147320000Y-124460000D02*
X146558000Y-125222000D01*
X147320000Y-119888000D02*
X147320000Y-124460000D01*
X145194000Y-117762000D02*
X147320000Y-119888000D01*
X145034000Y-117762000D02*
X145194000Y-117762000D01*
D50*
X96520000Y-132842000D02*
X96520000Y-129286000D01*
X95462000Y-133900000D02*
X96520000Y-132842000D01*
X95250000Y-133900000D02*
X95462000Y-133900000D01*
X89662000Y-136144000D02*
X90170000Y-135636000D01*
X84328000Y-136144000D02*
X89662000Y-136144000D01*
X83820000Y-135636000D02*
X84328000Y-136144000D01*
X83820000Y-132588000D02*
X83820000Y-135636000D01*
X82592000Y-131360000D02*
X83820000Y-132588000D01*
X82550000Y-131360000D02*
X82592000Y-131360000D01*
X120650000Y-131360000D02*
X120946000Y-131360000D01*
X115808000Y-134138000D02*
X115570000Y-133900000D01*
X96266000Y-129286000D02*
X96520000Y-129286000D01*
X95684000Y-128704000D02*
X96266000Y-129286000D01*
X95684000Y-127254000D02*
X95684000Y-128704000D01*
X107950000Y-133900000D02*
X107950000Y-135636000D01*
X97748000Y-136398000D02*
X95250000Y-133900000D01*
X107188000Y-136398000D02*
X97748000Y-136398000D01*
X107950000Y-135636000D02*
X107188000Y-136398000D01*
X107950000Y-133900000D02*
X107950000Y-135636000D01*
X90170000Y-133900000D02*
X90170000Y-135636000D01*
D52*
X143416000Y-117762000D02*
X145034000Y-117762000D01*
X142367000Y-116713000D02*
X143416000Y-117762000D01*
X142367000Y-116078000D02*
X142367000Y-116713000D01*
X142367000Y-108331000D02*
X142367000Y-110998000D01*
X143002000Y-107696000D02*
X142367000Y-108331000D01*
X146558000Y-107696000D02*
X143002000Y-107696000D01*
X147320000Y-106934000D02*
X146558000Y-107696000D01*
X147320000Y-101600000D02*
X147320000Y-106934000D01*
X145956000Y-100236000D02*
X147320000Y-101600000D01*
X145034000Y-100236000D02*
X145956000Y-100236000D01*
X142367000Y-110998000D02*
X142367000Y-116078000D01*
D51*
X143182000Y-78740000D02*
X144854000Y-78740000D01*
D50*
X117360000Y-79883000D02*
X117348000Y-79883000D01*
X117360000Y-79883000D02*
X117348000Y-79883000D01*
X100330000Y-129794000D02*
X100330000Y-131360000D01*
X99822000Y-129286000D02*
X100330000Y-129794000D01*
X96520000Y-129286000D02*
X99822000Y-129286000D01*
X107765000Y-105664000D02*
X106167000Y-105664000D01*
X115570000Y-133900000D02*
X115570000Y-135128000D01*
X114046000Y-136652000D02*
X115570000Y-135128000D01*
X108712000Y-136652000D02*
X114046000Y-136652000D01*
X107950000Y-135890000D02*
X108712000Y-136652000D01*
X107950000Y-135636000D02*
X107950000Y-135890000D01*
X115570000Y-135128000D02*
X115570000Y-133900000D01*
X115570000Y-137430000D02*
X115316000Y-137684000D01*
X115570000Y-135128000D02*
X115570000Y-137430000D01*
X120318000Y-137684000D02*
X121158000Y-138524000D01*
X115316000Y-137684000D02*
X120318000Y-137684000D01*
X102211000Y-105411500D02*
X102211000Y-104443000D01*
X105749600Y-104864000D02*
X107765000Y-104864000D01*
X104989000Y-104103400D02*
X105749600Y-104864000D01*
X102550600Y-104103400D02*
X104989000Y-104103400D01*
X102211000Y-104443000D02*
X102550600Y-104103400D01*
X118618000Y-94615000D02*
X118618000Y-95579800D01*
X118237000Y-95960800D02*
X115316000Y-95960800D01*
X118618000Y-95579800D02*
X118237000Y-95960800D01*
X114465000Y-99764000D02*
X114465000Y-96811800D01*
X114465000Y-96811800D02*
X115316000Y-95960800D01*
X115316000Y-95960800D02*
X115316000Y-94472000D01*
X83693000Y-88192200D02*
X83693000Y-86762000D01*
X84135600Y-88634800D02*
X83693000Y-88192200D01*
X85659600Y-88634800D02*
X84135600Y-88634800D01*
X86904200Y-89879400D02*
X85659600Y-88634800D01*
X87996400Y-89879400D02*
X86904200Y-89879400D01*
X88199600Y-90082600D02*
X87996400Y-89879400D01*
X90204000Y-121096000D02*
X90204000Y-114900600D01*
X91044400Y-114060200D02*
X92606500Y-114060200D01*
X90204000Y-114900600D02*
X91044400Y-114060200D01*
X83716500Y-84504000D02*
X83716500Y-86738500D01*
X83716500Y-86738500D02*
X83693000Y-86762000D01*
X110490000Y-131360000D02*
X110490000Y-124882500D01*
X108291000Y-118699000D02*
X111228000Y-115762000D01*
X108291000Y-122683500D02*
X108291000Y-118699000D01*
X110490000Y-124882500D02*
X108291000Y-122683500D01*
X112865000Y-111564000D02*
X112865000Y-113283500D01*
X112865000Y-113283500D02*
X111228000Y-114920500D01*
X111228000Y-114920500D02*
X111228000Y-115762000D01*
X94194000Y-115571500D02*
X93495500Y-115571500D01*
X96545000Y-115570000D02*
X94448000Y-115570000D01*
X94448000Y-115570000D02*
X94194000Y-115570000D01*
X98425000Y-115570000D02*
X96545000Y-115570000D01*
X94194000Y-115570000D02*
X94194000Y-115571500D01*
X92606500Y-114682500D02*
X92606500Y-114060200D01*
X93495500Y-115571500D02*
X92606500Y-114682500D01*
X92606500Y-114060200D02*
X92606500Y-109983500D01*
X94003500Y-105411500D02*
X102211000Y-105411500D01*
X93178000Y-106237000D02*
X94003500Y-105411500D01*
X93178000Y-109412000D02*
X93178000Y-106237000D01*
X92606500Y-109983500D02*
X93178000Y-109412000D01*
X130810000Y-131360000D02*
X130810000Y-128692500D01*
X110490000Y-129120500D02*
X110490000Y-131360000D01*
X111656500Y-127954000D02*
X110490000Y-129120500D01*
X130071500Y-127954000D02*
X111656500Y-127954000D01*
X130810000Y-128692500D02*
X130071500Y-127954000D01*
X119565000Y-105664000D02*
X122196000Y-105664000D01*
X123007000Y-107364000D02*
X124166000Y-107364000D01*
X122642000Y-106999000D02*
X123007000Y-107364000D01*
X122642000Y-106110000D02*
X122642000Y-106999000D01*
X122196000Y-105664000D02*
X122642000Y-106110000D01*
X126566000Y-107950000D02*
X124752000Y-107950000D01*
X124752000Y-107950000D02*
X124166000Y-107364000D01*
D51*
X110450000Y-131320000D02*
X110490000Y-131360000D01*
D50*
X90204000Y-121096000D02*
X90204000Y-122440000D01*
X90204000Y-122440000D02*
X90638000Y-122874000D01*
X90638000Y-122874000D02*
X94067000Y-122874000D01*
X94067000Y-122874000D02*
X94448000Y-123255000D01*
X94448000Y-123255000D02*
X94448000Y-125541000D01*
X94448000Y-125541000D02*
X94575000Y-125668000D01*
X94575000Y-125668000D02*
X98004000Y-125668000D01*
X98004000Y-125668000D02*
X98386000Y-126050000D01*
X98386000Y-126050000D02*
X98386000Y-126938000D01*
X126344000Y-108172000D02*
X126566000Y-107950000D01*
X81714000Y-86762000D02*
X81534000Y-86942000D01*
X83693000Y-86762000D02*
X81714000Y-86762000D01*
X118240000Y-105664000D02*
X119565000Y-105664000D01*
X117007000Y-104431000D02*
X118240000Y-105664000D01*
X116536000Y-104431000D02*
X117007000Y-104431000D01*
X114465000Y-101089000D02*
X114465000Y-99764000D01*
X116536000Y-103161000D02*
X114465000Y-101089000D01*
X116536000Y-104431000D02*
X116536000Y-103161000D01*
X112865000Y-110239000D02*
X112865000Y-111564000D01*
X110724000Y-108098000D02*
X112865000Y-110239000D01*
X110724000Y-105061000D02*
X110724000Y-108098000D01*
X109287000Y-105061000D02*
X110724000Y-105061000D01*
X107765000Y-104864000D02*
X109090000Y-104864000D01*
X109090000Y-104864000D02*
X109287000Y-105061000D01*
X115907000Y-105061000D02*
X116536000Y-104431000D01*
X110724000Y-105061000D02*
X115907000Y-105061000D01*
X111265000Y-112890000D02*
X111265000Y-111564000D01*
X110490000Y-113665000D02*
X111265000Y-112890000D01*
X110490000Y-113651000D02*
X110490000Y-113665000D01*
X107301000Y-116840000D02*
X110490000Y-113651000D01*
X102743000Y-116840000D02*
X107301000Y-116840000D01*
X102235000Y-117348000D02*
X102743000Y-116840000D01*
X102235000Y-119253000D02*
X102235000Y-117348000D01*
X101854000Y-119634000D02*
X102235000Y-119253000D01*
X98933000Y-119634000D02*
X101854000Y-119634000D01*
X98425000Y-119126000D02*
X98933000Y-119634000D01*
X98425000Y-118110000D02*
X98425000Y-119126000D01*
X110465000Y-112801000D02*
X110465000Y-111564000D01*
X108966000Y-114300000D02*
X110465000Y-112801000D01*
X102558000Y-114300000D02*
X108966000Y-114300000D01*
X102235000Y-114623000D02*
X102558000Y-114300000D01*
X102235000Y-116459000D02*
X102235000Y-114623000D01*
X100965000Y-117729000D02*
X102235000Y-116459000D01*
X100965000Y-118110000D02*
X100965000Y-117729000D01*
X100965000Y-114046000D02*
X100965000Y-115570000D01*
X101219000Y-113792000D02*
X100965000Y-114046000D01*
X106426000Y-113792000D02*
X101219000Y-113792000D01*
X106553000Y-113665000D02*
X106426000Y-113792000D01*
X106553000Y-111760000D02*
X106553000Y-113665000D01*
X106749000Y-111564000D02*
X106553000Y-111760000D01*
X109665000Y-111564000D02*
X106749000Y-111564000D01*
X129553000Y-146242000D02*
X131956000Y-146242000D01*
X135977000Y-104602000D02*
X135977000Y-103392200D01*
X110500800Y-98134400D02*
X110500800Y-99728200D01*
X110958000Y-97677200D02*
X110500800Y-98134400D01*
X135977000Y-103392200D02*
X135951600Y-103366800D01*
X110500800Y-99728200D02*
X110465000Y-99764000D01*
X137300000Y-105020000D02*
X138644000Y-105020000D01*
X136882000Y-104602000D02*
X137300000Y-105020000D01*
X135977000Y-104602000D02*
X136882000Y-104602000D01*
X138644000Y-105020000D02*
X138644000Y-107200000D01*
X135636000Y-120126000D02*
X133914800Y-120126000D01*
X111265000Y-101641800D02*
X111265000Y-99764000D01*
X111288200Y-101665000D02*
X111265000Y-101641800D01*
X133614800Y-111494800D02*
X133665600Y-111444000D01*
X133614800Y-119826000D02*
X133614800Y-111494800D01*
X133914800Y-120126000D02*
X133614800Y-119826000D01*
X135636000Y-120126000D02*
X138362000Y-120126000D01*
X138362000Y-120126000D02*
X138644000Y-120408000D01*
X138644000Y-118228000D02*
X138644000Y-120408000D01*
X138430000Y-120216000D02*
X138430000Y-120548000D01*
X138430000Y-141658000D02*
X135634800Y-141658000D01*
X135596000Y-141619200D02*
X135596000Y-140924000D01*
X135634800Y-141658000D02*
X135596000Y-141619200D01*
X138430000Y-141658000D02*
X138430000Y-143330000D01*
X126510400Y-129282400D02*
X120446600Y-129282400D01*
X127000000Y-129772000D02*
X126510400Y-129282400D01*
X127000000Y-139678000D02*
X127000000Y-129772000D01*
X127816000Y-140494000D02*
X127000000Y-139678000D01*
X135636000Y-140494000D02*
X127816000Y-140494000D01*
X112065000Y-99764000D02*
X112065000Y-101089300D01*
X113559500Y-102583800D02*
X115033800Y-102583800D01*
X112065000Y-101089300D02*
X113559500Y-102583800D01*
X86233000Y-112014000D02*
X86233000Y-110692800D01*
X93635200Y-101690400D02*
X94475600Y-101690400D01*
X91273000Y-104052600D02*
X93635200Y-101690400D01*
X91273000Y-108446800D02*
X91273000Y-104052600D01*
X90790400Y-108929400D02*
X91273000Y-108446800D01*
X87996400Y-108929400D02*
X90790400Y-108929400D01*
X86233000Y-110692800D02*
X87996400Y-108929400D01*
X107765000Y-102464000D02*
X106499200Y-102464000D01*
X106499200Y-102464000D02*
X105725600Y-101690400D01*
X105725600Y-101690400D02*
X94475600Y-101690400D01*
X86233000Y-112014000D02*
X86487000Y-112014000D01*
X99962000Y-108064000D02*
X107765000Y-108064000D01*
X98933000Y-109093000D02*
X99962000Y-108064000D01*
X98933000Y-112014000D02*
X98933000Y-109093000D01*
X103226000Y-108864000D02*
X107765000Y-108864000D01*
X101473000Y-110617000D02*
X103226000Y-108864000D01*
X101473000Y-112014000D02*
X101473000Y-110617000D01*
X105283000Y-110744000D02*
X104013000Y-112014000D01*
X107569000Y-110744000D02*
X105283000Y-110744000D01*
X107765000Y-110548000D02*
X107569000Y-110744000D01*
X107765000Y-109664000D02*
X107765000Y-110548000D01*
X91313000Y-110363000D02*
X91313000Y-112014000D01*
X92456000Y-109220000D02*
X91313000Y-110363000D01*
X92456000Y-105156000D02*
X92456000Y-109220000D01*
X93726000Y-103886000D02*
X92456000Y-105156000D01*
X100330000Y-103886000D02*
X93726000Y-103886000D01*
X100838000Y-103378000D02*
X100330000Y-103886000D01*
X105918000Y-103378000D02*
X100838000Y-103378000D01*
X106604000Y-104064000D02*
X105918000Y-103378000D01*
X107765000Y-104064000D02*
X106604000Y-104064000D01*
X91694000Y-111633000D02*
X91313000Y-112014000D01*
X93853000Y-107569000D02*
X93853000Y-112014000D01*
X94742000Y-106680000D02*
X93853000Y-107569000D01*
X106045000Y-106680000D02*
X94742000Y-106680000D01*
X106261000Y-106464000D02*
X106045000Y-106680000D01*
X107765000Y-106464000D02*
X106261000Y-106464000D01*
X116065000Y-111564000D02*
X116065000Y-109709000D01*
X84963000Y-93807000D02*
X84963000Y-92562000D01*
X85398000Y-94242000D02*
X84963000Y-93807000D01*
X85398000Y-96342000D02*
X85398000Y-94242000D01*
X85488400Y-96432400D02*
X85398000Y-96342000D01*
X89607600Y-96432400D02*
X85488400Y-96432400D01*
X89598000Y-96442000D02*
X89607600Y-96432400D01*
X112898000Y-108042000D02*
X112898000Y-107142000D01*
X114198000Y-109342000D02*
X112898000Y-108042000D01*
X115698000Y-109342000D02*
X114198000Y-109342000D01*
X116065000Y-109709000D02*
X115698000Y-109342000D01*
X87249000Y-90551000D02*
X86233000Y-90551000D01*
X87503000Y-90805000D02*
X87249000Y-90551000D01*
X114046000Y-107823000D02*
X114046000Y-107061000D01*
X114935000Y-108712000D02*
X114046000Y-107823000D01*
X116332000Y-108712000D02*
X114935000Y-108712000D01*
X116865000Y-109245000D02*
X116332000Y-108712000D01*
X116865000Y-111564000D02*
X116865000Y-109245000D01*
X85524000Y-89842000D02*
X81534000Y-89842000D01*
X86233000Y-90551000D02*
X85524000Y-89842000D01*
X86233000Y-92562000D02*
X86233000Y-90551000D01*
X88773000Y-110363000D02*
X88773000Y-112014000D01*
X89535000Y-109601000D02*
X88773000Y-110363000D01*
X91186000Y-109601000D02*
X89535000Y-109601000D01*
X91948000Y-108839000D02*
X91186000Y-109601000D01*
X91948000Y-104648000D02*
X91948000Y-108839000D01*
X93345000Y-103251000D02*
X91948000Y-104648000D01*
X99949000Y-103251000D02*
X93345000Y-103251000D01*
X100457000Y-102743000D02*
X99949000Y-103251000D01*
X106045000Y-102743000D02*
X100457000Y-102743000D01*
X106566000Y-103264000D02*
X106045000Y-102743000D01*
X107765000Y-103264000D02*
X106566000Y-103264000D01*
X96369000Y-122112000D02*
X96369000Y-118216400D01*
X87503000Y-89153600D02*
X87503000Y-86762000D01*
X87463000Y-89193600D02*
X87503000Y-89153600D01*
X95514800Y-117362200D02*
X91247600Y-117362200D01*
X96369000Y-118216400D02*
X95514800Y-117362200D01*
X87503000Y-86762000D02*
X87503000Y-87528000D01*
X134400000Y-78740000D02*
X135710000Y-78740000D01*
X133698000Y-79442000D02*
X134400000Y-78740000D01*
X124998000Y-82142000D02*
X125698000Y-81442000D01*
X124998000Y-97742000D02*
X124998000Y-82142000D01*
X124098000Y-98642000D02*
X124998000Y-97742000D01*
X122198000Y-98642000D02*
X124098000Y-98642000D01*
X122098000Y-98742000D02*
X122198000Y-98642000D01*
X121276000Y-108864000D02*
X121298000Y-108842000D01*
X119565000Y-108864000D02*
X121276000Y-108864000D01*
X119565000Y-108064000D02*
X121620000Y-108064000D01*
X145991600Y-80335600D02*
X145987000Y-81153000D01*
X145991600Y-78335600D02*
X145991600Y-80335600D01*
X139898000Y-96442000D02*
X146698000Y-96442000D01*
X138298000Y-98042000D02*
X139898000Y-96442000D01*
X121620000Y-108064000D02*
X122398000Y-108842000D01*
X95448000Y-124271000D02*
X95448000Y-123239000D01*
X94702000Y-121096000D02*
X93104000Y-121096000D01*
X95083000Y-121477000D02*
X94702000Y-121096000D01*
X95083000Y-122874000D02*
X95083000Y-121477000D01*
X95448000Y-123239000D02*
X95083000Y-122874000D01*
X95448000Y-124271000D02*
X101732000Y-124271000D01*
X101692000Y-122112000D02*
X102830000Y-122112000D01*
X103505000Y-121437000D02*
X103505000Y-118110000D01*
X102830000Y-122112000D02*
X103505000Y-121437000D01*
X104884000Y-125730000D02*
X104884000Y-126408000D01*
X104884000Y-126408000D02*
X104354000Y-126938000D01*
X104354000Y-126938000D02*
X101686000Y-126938000D01*
X101732000Y-124017000D02*
X101732000Y-124271000D01*
X101732000Y-124271000D02*
X101732000Y-126892000D01*
X101732000Y-126892000D02*
X101686000Y-126938000D01*
X101732000Y-124017000D02*
X101732000Y-121666000D01*
X112065000Y-112852000D02*
X112065000Y-111564000D01*
X103505000Y-118110000D02*
X106790000Y-118110000D01*
X106790000Y-118110000D02*
X110998000Y-113902000D01*
X110998000Y-113902000D02*
X110998000Y-113919000D01*
X110998000Y-113919000D02*
X112065000Y-112852000D01*
X98095000Y-107264000D02*
X107765000Y-107264000D01*
X96393000Y-108966000D02*
X98095000Y-107264000D01*
X96393000Y-112014000D02*
X96393000Y-108966000D01*
D51*
X115570000Y-80391000D02*
X112674000Y-80391000D01*
X112202600Y-80862400D02*
X112202600Y-82014200D01*
X112674000Y-80391000D02*
X112202600Y-80862400D01*
D50*
X116660000Y-81419000D02*
X116660000Y-80846000D01*
X115951000Y-81788000D02*
X116082000Y-81919000D01*
X115951000Y-80772000D02*
X115951000Y-81788000D01*
X116082000Y-81919000D02*
X115909700Y-82091300D01*
X115909700Y-82091300D02*
X115909700Y-82419000D01*
X116371000Y-81919000D02*
X116660000Y-81919000D01*
X116660000Y-82419000D02*
X115909700Y-82419000D01*
X116082000Y-81919000D02*
X116371000Y-81919000D01*
X116205000Y-80391000D02*
X115570000Y-80391000D01*
X116660000Y-80846000D02*
X116205000Y-80391000D01*
X115570000Y-80391000D02*
X115951000Y-80772000D01*
X116660000Y-82919000D02*
X116369000Y-82919000D01*
X116369000Y-82919000D02*
X115583000Y-83705000D01*
X115583000Y-83705000D02*
X115583000Y-87060000D01*
X111847000Y-139384000D02*
X111872400Y-139358600D01*
X110249000Y-139384000D02*
X111847000Y-139384000D01*
X117548000Y-104064000D02*
X119565000Y-104064000D01*
X117485800Y-104001800D02*
X117548000Y-104064000D01*
X129057000Y-105061000D02*
X128866000Y-105252000D01*
X129212000Y-105061000D02*
X129057000Y-105061000D01*
X129371000Y-105061000D02*
X129466000Y-105156000D01*
X129212000Y-105061000D02*
X129371000Y-105061000D01*
X120979000Y-104153000D02*
X122878000Y-104153000D01*
X120890000Y-104064000D02*
X120979000Y-104153000D01*
X119565000Y-104064000D02*
X120890000Y-104064000D01*
X130228000Y-97536000D02*
X132300000Y-97536000D01*
X130228000Y-99822000D02*
X132300000Y-99822000D01*
X130228000Y-102108000D02*
X132300000Y-102108000D01*
X129466000Y-107950000D02*
X133356000Y-107950000D01*
X133356000Y-107950000D02*
X133368000Y-107962000D01*
D51*
X129478000Y-107962000D02*
X129466000Y-107950000D01*
D50*
X116266000Y-139684000D02*
X116266000Y-139027800D01*
X102094400Y-138138400D02*
X102094400Y-139409400D01*
X102779200Y-137453600D02*
X102094400Y-138138400D01*
X112202600Y-137453600D02*
X102779200Y-137453600D01*
X113472600Y-138723600D02*
X112202600Y-137453600D01*
X115961800Y-138723600D02*
X113472600Y-138723600D01*
X116266000Y-139027800D02*
X115961800Y-138723600D01*
X100216000Y-139384000D02*
X102069000Y-139384000D01*
X102069000Y-139384000D02*
X102094400Y-139409400D01*
X121158000Y-143924000D02*
X118546000Y-143924000D01*
X117735000Y-139684000D02*
X116266000Y-139684000D01*
X118070000Y-140019000D02*
X117735000Y-139684000D01*
X118070000Y-143448000D02*
X118070000Y-140019000D01*
X118546000Y-143924000D02*
X118070000Y-143448000D01*
D51*
X143295500Y-73473500D02*
X143295500Y-72229700D01*
X136967600Y-72175600D02*
X136967600Y-72833800D01*
X137501000Y-71642200D02*
X136967600Y-72175600D01*
X142708000Y-71642200D02*
X137501000Y-71642200D01*
X143295500Y-72229700D02*
X142708000Y-71642200D01*
X134199000Y-72837000D02*
X136964400Y-72837000D01*
X136964400Y-72837000D02*
X136967600Y-72833800D01*
D50*
X130643000Y-84393000D02*
X130643000Y-82234000D01*
X135405500Y-74043500D02*
X134199000Y-72837000D01*
X135405500Y-76963500D02*
X135405500Y-74043500D01*
X135151500Y-77217500D02*
X135405500Y-76963500D01*
X133310000Y-77217500D02*
X135151500Y-77217500D01*
X132230500Y-78297000D02*
X133310000Y-77217500D01*
X132230500Y-80646500D02*
X132230500Y-78297000D01*
X130643000Y-82234000D02*
X132230500Y-80646500D01*
D51*
X124921000Y-77470000D02*
X124921000Y-73541500D01*
X125625500Y-72837000D02*
X134199000Y-72837000D01*
X124921000Y-73541500D02*
X125625500Y-72837000D01*
D50*
X139830000Y-81014800D02*
X139830000Y-83343800D01*
X140117200Y-83631000D02*
X140623000Y-83631000D01*
X139830000Y-83343800D02*
X140117200Y-83631000D01*
X140809000Y-83445000D02*
X140623000Y-83631000D01*
D51*
X145034000Y-87710000D02*
X145034000Y-87083500D01*
X145034000Y-87083500D02*
X145884000Y-86233500D01*
X145884000Y-86233500D02*
X145884000Y-83631000D01*
D50*
X143523000Y-83631000D02*
X145884000Y-83631000D01*
D51*
X139303000Y-89977000D02*
X139303000Y-90592000D01*
X129627000Y-86933000D02*
X130643000Y-86933000D01*
X128738000Y-87822000D02*
X129627000Y-86933000D01*
X128738000Y-90362000D02*
X128738000Y-87822000D01*
X129627000Y-91251000D02*
X128738000Y-90362000D01*
X138644000Y-91251000D02*
X129627000Y-91251000D01*
X139303000Y-90592000D02*
X138644000Y-91251000D01*
X145034000Y-89154000D02*
X145034000Y-87710000D01*
X144211000Y-89977000D02*
X145034000Y-89154000D01*
X139303000Y-89977000D02*
X144211000Y-89977000D01*
X145508000Y-87236000D02*
X145034000Y-87710000D01*
D50*
X92710000Y-127328000D02*
X92784000Y-127254000D01*
X92710000Y-131360000D02*
X92710000Y-127328000D01*
X92784000Y-131286000D02*
X92710000Y-131360000D01*
X119565000Y-107264000D02*
X116216200Y-107264000D01*
X123444000Y-110490000D02*
X123444000Y-111506000D01*
X122618000Y-109664000D02*
X123444000Y-110490000D01*
X119565000Y-109664000D02*
X122618000Y-109664000D01*
X125984000Y-113030000D02*
X125984000Y-111506000D01*
X125095000Y-113919000D02*
X125984000Y-113030000D01*
X118364000Y-113919000D02*
X125095000Y-113919000D01*
X117665000Y-113220000D02*
X118364000Y-113919000D01*
X117665000Y-111564000D02*
X117665000Y-113220000D01*
X107765000Y-96208000D02*
X107188000Y-95631000D01*
X107765000Y-101664000D02*
X107765000Y-96208000D01*
X138644000Y-123308000D02*
X144488000Y-123308000D01*
X144488000Y-123308000D02*
X145034000Y-122762000D01*
D51*
X143584000Y-138758000D02*
X138430000Y-138758000D01*
X145034000Y-140208000D02*
X143584000Y-138758000D01*
X145034000Y-140796000D02*
X145034000Y-140208000D01*
D50*
X112931000Y-119572000D02*
X112931000Y-118030800D01*
X115101500Y-117435100D02*
X115101500Y-116381000D01*
X114844200Y-117692400D02*
X115101500Y-117435100D01*
X113269400Y-117692400D02*
X114844200Y-117692400D01*
X112931000Y-118030800D02*
X113269400Y-117692400D01*
X115101500Y-116381000D02*
X115101500Y-115762000D01*
X114465000Y-111564000D02*
X114465000Y-114125500D01*
X115101500Y-114762000D02*
X115101500Y-115762000D01*
X114465000Y-114125500D02*
X115101500Y-114762000D01*
X115101500Y-115762000D02*
X115101500Y-116381000D01*
X99568000Y-77088000D02*
X96974000Y-77088000D01*
X96974000Y-77088000D02*
X96774000Y-76888000D01*
X136967600Y-75733800D02*
X138743400Y-75733800D01*
X139080700Y-75396500D02*
X140485500Y-75396500D01*
X138743400Y-75733800D02*
X139080700Y-75396500D01*
X140276000Y-75556000D02*
X140485500Y-75346500D01*
X98385000Y-151859200D02*
X98990800Y-152465000D01*
X98385000Y-148020000D02*
X98385000Y-151859200D01*
X97750000Y-147385000D02*
X98385000Y-148020000D01*
X94397200Y-147385000D02*
X97750000Y-147385000D01*
X93470100Y-146457900D02*
X94397200Y-147385000D01*
X93470100Y-145594300D02*
X93470100Y-146457900D01*
X93000200Y-145124400D02*
X93470100Y-145594300D01*
X91791500Y-145124400D02*
X93000200Y-145124400D01*
X111593000Y-141504900D02*
X111593000Y-141494000D01*
X104900100Y-141504900D02*
X111593000Y-141504900D01*
X103998400Y-142406600D02*
X104900100Y-141504900D01*
X103998400Y-144705300D02*
X103998400Y-142406600D01*
X103604700Y-145099000D02*
X103998400Y-144705300D01*
X102296600Y-145099000D02*
X103604700Y-145099000D01*
X100544000Y-143346400D02*
X102296600Y-145099000D01*
X100544000Y-142546300D02*
X100544000Y-143346400D01*
X99896300Y-141898600D02*
X100544000Y-142546300D01*
X93203400Y-141898600D02*
X99896300Y-141898600D01*
X92363000Y-141058200D02*
X93203400Y-141898600D01*
X92363000Y-139384000D02*
X92363000Y-141058200D01*
X111593000Y-141494000D02*
X111288200Y-141494000D01*
X93990800Y-152465000D02*
X93990800Y-148375600D01*
X90980900Y-139384000D02*
X92363000Y-139384000D01*
X90320500Y-140044400D02*
X90980900Y-139384000D01*
X90320500Y-146394400D02*
X90320500Y-140044400D01*
X91019000Y-147092900D02*
X90320500Y-146394400D01*
X92708100Y-147092900D02*
X91019000Y-147092900D01*
X93990800Y-148375600D02*
X92708100Y-147092900D01*
X114366000Y-141494000D02*
X111593000Y-141494000D01*
X111286400Y-141494000D02*
X110924000Y-141856400D01*
X110924000Y-141856400D02*
X110924000Y-143510000D01*
X111288200Y-141494000D02*
X111286400Y-141494000D01*
X114366000Y-139684000D02*
X114366000Y-141494000D01*
X110924000Y-142928000D02*
X110924000Y-143510000D01*
X110990000Y-143444000D02*
X110924000Y-143510000D01*
X110924000Y-143510000D02*
X110924000Y-142928000D01*
X110924000Y-143510000D02*
X110924000Y-142928000D01*
X109665000Y-95694000D02*
X109728000Y-95631000D01*
X109665000Y-99764000D02*
X109665000Y-95694000D01*
X139303000Y-88077000D02*
X141767200Y-88077000D01*
X148857000Y-82155600D02*
X148857000Y-81091000D01*
X148626200Y-82386400D02*
X148857000Y-82155600D01*
X142809600Y-82386400D02*
X148626200Y-82386400D01*
X142530200Y-82665800D02*
X142809600Y-82386400D01*
X142530200Y-87314000D02*
X142530200Y-82665800D01*
X141767200Y-88077000D02*
X142530200Y-87314000D01*
X148857000Y-79239000D02*
X148857000Y-81218000D01*
X148358000Y-78740000D02*
X148857000Y-79239000D01*
X147754000Y-78740000D02*
X148358000Y-78740000D01*
X148792000Y-81153000D02*
X148857000Y-81218000D01*
D52*
X145034000Y-145796000D02*
X145034000Y-153386400D01*
X145034000Y-153386400D02*
X145052400Y-153404800D01*
D53*
X132334000Y-154432000D02*
X134997600Y-154432000D01*
X145052400Y-156013400D02*
X145052400Y-153404800D01*
X144079600Y-156986200D02*
X145052400Y-156013400D01*
X137551800Y-156986200D02*
X144079600Y-156986200D01*
X134997600Y-154432000D02*
X137551800Y-156986200D01*
D51*
X129921000Y-77470000D02*
X129921000Y-77050500D01*
X129921000Y-77050500D02*
X130834500Y-76137000D01*
X130834500Y-76137000D02*
X134199000Y-76137000D01*
X149184000Y-83631000D02*
X149184000Y-90934500D01*
X149184000Y-90934500D02*
X147408500Y-92710000D01*
D50*
X122547000Y-150306000D02*
X122674000Y-150433000D01*
X117348000Y-150306000D02*
X122547000Y-150306000D01*
D53*
X117348000Y-150306000D02*
X117348000Y-148312100D01*
D51*
X120650000Y-81915000D02*
X121691000Y-81915000D01*
X128230000Y-80329000D02*
X128979500Y-81078500D01*
X123277000Y-80329000D02*
X128230000Y-80329000D01*
X121691000Y-81915000D02*
X123277000Y-80329000D01*
D50*
X120650000Y-80899000D02*
X120470000Y-80719000D01*
X120650000Y-81407000D02*
X120650000Y-80899000D01*
X120650000Y-81419000D02*
X120650000Y-81407000D01*
X120650000Y-81915000D02*
X120650000Y-81419000D01*
X120650000Y-81419000D02*
X120650000Y-81407000D01*
X120400000Y-82419000D02*
X120650000Y-82169000D01*
X120650000Y-81919000D02*
X120650000Y-81915000D01*
X120650000Y-82169000D02*
X120650000Y-81919000D01*
X120650000Y-81919000D02*
X120650000Y-81915000D01*
D52*
X148804000Y-127192000D02*
X148804000Y-144718000D01*
X147726000Y-145796000D02*
X145034000Y-145796000D01*
X148804000Y-144718000D02*
X147726000Y-145796000D01*
X148804000Y-109412000D02*
X148804000Y-127192000D01*
X148234000Y-127762000D02*
X145034000Y-127762000D01*
X148804000Y-127192000D02*
X148234000Y-127762000D01*
X146558000Y-92710000D02*
X147408500Y-92710000D01*
X147408500Y-92710000D02*
X147091000Y-92710000D01*
X147091000Y-92710000D02*
X147596000Y-92710000D01*
X147980000Y-110236000D02*
X145034000Y-110236000D01*
X148804000Y-109412000D02*
X147980000Y-110236000D01*
X148804000Y-93918000D02*
X148804000Y-109412000D01*
X147596000Y-92710000D02*
X148804000Y-93918000D01*
X79502000Y-103726000D02*
X78163000Y-103726000D01*
X114489000Y-158561000D02*
X118618000Y-154432000D01*
X76922000Y-158561000D02*
X114489000Y-158561000D01*
X75017000Y-156656000D02*
X76922000Y-158561000D01*
X75017000Y-153354000D02*
X75017000Y-156656000D01*
X71334000Y-149671000D02*
X75017000Y-153354000D01*
X65619000Y-149671000D02*
X71334000Y-149671000D01*
X63714000Y-147766000D02*
X65619000Y-149671000D01*
X63714000Y-118175000D02*
X63714000Y-147766000D01*
X65365000Y-116524000D02*
X63714000Y-118175000D01*
X67397000Y-116524000D02*
X65365000Y-116524000D01*
X70191000Y-113730000D02*
X67397000Y-116524000D01*
X76287000Y-113730000D02*
X70191000Y-113730000D01*
X77049000Y-112968000D02*
X76287000Y-113730000D01*
X77049000Y-104840000D02*
X77049000Y-112968000D01*
X78163000Y-103726000D02*
X77049000Y-104840000D01*
X86233000Y-99314000D02*
X80826000Y-99314000D01*
X79502000Y-100638000D02*
X79502000Y-103726000D01*
X80826000Y-99314000D02*
X79502000Y-100638000D01*
D50*
X119560000Y-82419000D02*
X120400000Y-82419000D01*
X105844000Y-145468000D02*
X107758000Y-147382000D01*
X105844000Y-143510000D02*
X105844000Y-145468000D01*
D53*
X107758000Y-147382000D02*
X105782000Y-149358000D01*
D50*
X105844000Y-143510000D02*
X108024000Y-143510000D01*
D52*
X129921000Y-80137000D02*
X129921000Y-77470000D01*
X128979500Y-81078500D02*
X129921000Y-80137000D01*
X128905000Y-81153000D02*
X128979500Y-81078500D01*
X145034000Y-92710000D02*
X128270000Y-92710000D01*
X128270000Y-92710000D02*
X127381000Y-91821000D01*
X127381000Y-91821000D02*
X127381000Y-82677000D01*
X127381000Y-82677000D02*
X128905000Y-81153000D01*
D53*
X132334000Y-154432000D02*
X123444000Y-154432000D01*
X123444000Y-154432000D02*
X118618000Y-154432000D01*
D52*
X145034000Y-92710000D02*
X146558000Y-92710000D01*
X108024000Y-143510000D02*
X108024000Y-144198000D01*
D53*
X117348000Y-153162000D02*
X117348000Y-150306000D01*
X117348000Y-148312100D02*
X117348000Y-148082000D01*
X118618000Y-154432000D02*
X117348000Y-153162000D01*
X108328000Y-146812000D02*
X107758000Y-147382000D01*
X116078000Y-146812000D02*
X108328000Y-146812000D01*
X117348000Y-148082000D02*
X116078000Y-146812000D01*
D50*
X119560000Y-81919000D02*
X120650000Y-81919000D01*
X119560000Y-81419000D02*
X120650000Y-81419000D01*
X120470000Y-80719000D02*
X118860000Y-80719000D01*
D51*
X105918000Y-76962000D02*
X102234000Y-76962000D01*
X102234000Y-76962000D02*
X102108000Y-77088000D01*
X102108000Y-77088000D02*
X102108000Y-79122000D01*
X112202600Y-84384200D02*
X112202600Y-86579600D01*
X112202600Y-86579600D02*
X112683000Y-87060000D01*
X118360000Y-79531000D02*
X118360000Y-78388000D01*
X115624000Y-72836000D02*
X113719000Y-74741000D01*
X121753000Y-72836000D02*
X115624000Y-72836000D01*
X121880000Y-72963000D02*
X121753000Y-72836000D01*
X121880000Y-76900000D02*
X121880000Y-72963000D01*
X120991000Y-77789000D02*
X121880000Y-76900000D01*
X118959000Y-77789000D02*
X120991000Y-77789000D01*
X118360000Y-78388000D02*
X118959000Y-77789000D01*
D50*
X118360000Y-80719000D02*
X118360000Y-79531000D01*
D51*
X112683000Y-87060000D02*
X109561000Y-87060000D01*
X109579000Y-80057000D02*
X111212000Y-80057000D01*
X108799000Y-80837000D02*
X109579000Y-80057000D01*
X108799000Y-86298000D02*
X108799000Y-80837000D01*
X109561000Y-87060000D02*
X108799000Y-86298000D01*
X113719000Y-74741000D02*
X113719000Y-77060000D01*
X113719000Y-77060000D02*
X113117000Y-77662000D01*
X113117000Y-77662000D02*
X111212000Y-77662000D01*
X105918000Y-76962000D02*
X110512000Y-76962000D01*
X111212000Y-77662000D02*
X111212000Y-80057000D01*
X110512000Y-76962000D02*
X111212000Y-77662000D01*
X105444000Y-76488000D02*
X105918000Y-76962000D01*
D50*
X126653000Y-150412000D02*
X126674000Y-150433000D01*
X126653000Y-146242000D02*
X126653000Y-150412000D01*
X102108000Y-73788000D02*
X99568000Y-73788000D01*
X96628000Y-74134000D02*
X96774000Y-73988000D01*
X93980000Y-74134000D02*
X96628000Y-74134000D01*
D51*
X88301000Y-79319000D02*
X88301000Y-80811400D01*
X102108000Y-81588200D02*
X102108000Y-82422000D01*
X101687000Y-81167200D02*
X102108000Y-81588200D01*
X88656800Y-81167200D02*
X101687000Y-81167200D01*
X88301000Y-80811400D02*
X88656800Y-81167200D01*
D50*
X96401600Y-145124400D02*
X97419800Y-145124400D01*
X100582100Y-148921700D02*
X100582100Y-156210000D01*
X98131000Y-146470600D02*
X100582100Y-148921700D01*
X98131000Y-145835600D02*
X98131000Y-146470600D01*
X97419800Y-145124400D02*
X98131000Y-145835600D01*
X94691500Y-145124400D02*
X96401600Y-145124400D01*
D53*
X79874000Y-153664000D02*
X79874000Y-155312000D01*
X80772000Y-156210000D02*
X96543500Y-156210000D01*
X79874000Y-155312000D02*
X80772000Y-156210000D01*
X96543500Y-156210000D02*
X99060000Y-156210000D01*
X99060000Y-156210000D02*
X100582100Y-156210000D01*
X100582100Y-156210000D02*
X100785300Y-156210000D01*
X103490000Y-156210000D02*
X105782000Y-153918000D01*
X100785300Y-156210000D02*
X103490000Y-156210000D01*
D50*
X116266000Y-141494000D02*
X116266000Y-142140500D01*
X104227000Y-146254700D02*
X101217100Y-146254700D01*
X104696900Y-145784800D02*
X104227000Y-146254700D01*
X104696900Y-142609800D02*
X104696900Y-145784800D01*
X105255700Y-142051000D02*
X104696900Y-142609800D01*
X108621200Y-142051000D02*
X105255700Y-142051000D01*
X109281600Y-142711400D02*
X108621200Y-142051000D01*
X109281600Y-144514800D02*
X109281600Y-142711400D01*
X109891200Y-145124400D02*
X109281600Y-144514800D01*
X112342300Y-145124400D02*
X109891200Y-145124400D01*
X112824900Y-144641800D02*
X112342300Y-145124400D01*
X112824900Y-143105100D02*
X112824900Y-144641800D01*
X113447200Y-142482800D02*
X112824900Y-143105100D01*
X115923700Y-142482800D02*
X113447200Y-142482800D01*
X116266000Y-142140500D02*
X115923700Y-142482800D01*
X105782000Y-151638000D02*
X102561800Y-151638000D01*
X100505900Y-145124400D02*
X99301600Y-145124400D01*
X101217100Y-145835600D02*
X100505900Y-145124400D01*
X101217100Y-150293300D02*
X101217100Y-146254700D01*
X101217100Y-146254700D02*
X101217100Y-145835600D01*
X102561800Y-151638000D02*
X101217100Y-150293300D01*
X104902000Y-151638000D02*
X105782000Y-151638000D01*
X104902000Y-151638000D02*
X105782000Y-151638000D01*
X105782000Y-151638000D02*
X110647700Y-151638000D01*
X110407000Y-151878700D02*
X110407000Y-153163000D01*
X110647700Y-151638000D02*
X110407000Y-151878700D01*
X113757000Y-153163000D02*
X113757000Y-151462700D01*
X110647700Y-151638000D02*
X112082000Y-151638000D01*
X110407000Y-150113000D02*
X112257300Y-150113000D01*
X113082200Y-150787800D02*
X113757000Y-151462700D01*
X113082200Y-150787800D02*
X113757000Y-150113000D01*
X112082000Y-151638000D02*
X112932200Y-150787800D01*
X112932200Y-150787900D02*
X112932200Y-150787800D01*
X113082100Y-150787900D02*
X112932200Y-150787900D01*
X113082200Y-150787800D02*
X113082100Y-150787900D01*
X112932200Y-150787800D02*
X112257300Y-150113000D01*
X138610000Y-78740000D02*
X140282000Y-78740000D01*
X143295500Y-75373500D02*
X143295500Y-76693500D01*
X140282000Y-77738500D02*
X140282000Y-78740000D01*
X140739500Y-77281000D02*
X140282000Y-77738500D01*
X142708000Y-77281000D02*
X140739500Y-77281000D01*
X143295500Y-76693500D02*
X142708000Y-77281000D01*
X119565000Y-106464000D02*
X115582400Y-106464000D01*
X115582400Y-106464000D02*
X115580800Y-106465600D01*
X67658000Y-125810000D02*
X67564000Y-125904000D01*
X67564000Y-125904000D02*
X67564000Y-125222000D01*
X127000000Y-95250000D02*
X127328000Y-95250000D01*
X126238000Y-96012000D02*
X127000000Y-95250000D01*
X126238000Y-97028000D02*
X126238000Y-96012000D01*
X125476000Y-97790000D02*
X126238000Y-97028000D01*
X125476000Y-98806000D02*
X125476000Y-97790000D01*
X124518000Y-99764000D02*
X125476000Y-98806000D01*
X117665000Y-99764000D02*
X124518000Y-99764000D01*
X126746000Y-97536000D02*
X127328000Y-97536000D01*
X125984000Y-98298000D02*
X126746000Y-97536000D01*
X125984000Y-99314000D02*
X125984000Y-98298000D01*
X124968000Y-100330000D02*
X125984000Y-99314000D01*
X122682000Y-100330000D02*
X124968000Y-100330000D01*
X121348000Y-101664000D02*
X122682000Y-100330000D01*
X119565000Y-101664000D02*
X121348000Y-101664000D01*
X126746000Y-99822000D02*
X127328000Y-99822000D01*
X125222000Y-101346000D02*
X126746000Y-99822000D01*
X122936000Y-101346000D02*
X125222000Y-101346000D01*
X121818000Y-102464000D02*
X122936000Y-101346000D01*
X119565000Y-102464000D02*
X121818000Y-102464000D01*
X123190000Y-102108000D02*
X127328000Y-102108000D01*
X122034000Y-103264000D02*
X123190000Y-102108000D01*
X119565000Y-103264000D02*
X122034000Y-103264000D01*
X105394400Y-139409400D02*
X107323600Y-139409400D01*
X107323600Y-139409400D02*
X107349000Y-139384000D01*
X119560000Y-82919000D02*
X120279000Y-82919000D01*
X120848000Y-83488000D02*
X120848000Y-87060000D01*
X120279000Y-82919000D02*
X120848000Y-83488000D01*
X88278000Y-124271000D02*
X93448000Y-124271000D01*
X100412000Y-122112000D02*
X98369000Y-122112000D01*
X76467000Y-120969000D02*
X78743000Y-120969000D01*
X130228000Y-95250000D02*
X132300000Y-95250000D01*
D53*
X73486000Y-147400000D02*
X73486000Y-144446000D01*
X75190000Y-149104000D02*
X73486000Y-147400000D01*
X79874000Y-149104000D02*
X75190000Y-149104000D01*
X67818000Y-144446000D02*
X73486000Y-144446000D01*
D50*
X73567000Y-120969000D02*
X67629000Y-120969000D01*
X67629000Y-120969000D02*
X67564000Y-120904000D01*
X116865000Y-99764000D02*
X116865000Y-98476200D01*
X122478800Y-97485200D02*
X122478800Y-95465900D01*
X121945400Y-98018600D02*
X122478800Y-97485200D01*
X117322600Y-98018600D02*
X121945400Y-98018600D01*
X116865000Y-98476200D02*
X117322600Y-98018600D01*
X116065000Y-99764000D02*
X116065000Y-98095100D01*
X121107200Y-93484700D02*
X121666000Y-92925900D01*
X121107200Y-96812100D02*
X121107200Y-93484700D01*
X120472200Y-97447100D02*
X121107200Y-96812100D01*
X116713000Y-97447100D02*
X120472200Y-97447100D01*
X116065000Y-98095100D02*
X116713000Y-97447100D01*
X121666000Y-92925900D02*
X122478800Y-92925900D01*
X115265000Y-99764000D02*
X115265000Y-97612400D01*
X121107200Y-90385900D02*
X122478800Y-90385900D01*
X120535700Y-90957400D02*
X121107200Y-90385900D01*
X120535700Y-95389700D02*
X120535700Y-90957400D01*
X118973600Y-96951800D02*
X120535700Y-95389700D01*
X115925600Y-96951800D02*
X118973600Y-96951800D01*
X115265000Y-97612400D02*
X115925600Y-96951800D01*
X90043000Y-92562000D02*
X90043000Y-91287200D01*
X87501000Y-81256000D02*
X87501000Y-79319000D01*
X88758400Y-82513400D02*
X87501000Y-81256000D01*
X93635200Y-82513400D02*
X88758400Y-82513400D01*
X94905200Y-83783400D02*
X93635200Y-82513400D01*
X94905200Y-89523800D02*
X94905200Y-83783400D01*
X93508200Y-90920800D02*
X94905200Y-89523800D01*
X90409400Y-90920800D02*
X93508200Y-90920800D01*
X90043000Y-91287200D02*
X90409400Y-90920800D01*
X86701000Y-79319000D02*
X86701000Y-81141800D01*
X88773000Y-91592000D02*
X88773000Y-92562000D01*
X90079200Y-90285800D02*
X88773000Y-91592000D01*
X93127200Y-90285800D02*
X90079200Y-90285800D01*
X94219400Y-89193600D02*
X93127200Y-90285800D01*
X94219400Y-84215200D02*
X94219400Y-89193600D01*
X93101800Y-83097600D02*
X94219400Y-84215200D01*
X88656800Y-83097600D02*
X93101800Y-83097600D01*
X86701000Y-81141800D02*
X88656800Y-83097600D01*
X88773000Y-92562000D02*
X88773000Y-91694000D01*
X145034000Y-105236000D02*
X145034000Y-103229000D01*
X143925000Y-102120000D02*
X138644000Y-102120000D01*
X145034000Y-103229000D02*
X143925000Y-102120000D01*
D51*
X145034000Y-105236000D02*
X145034000Y-103886000D01*
X86174000Y-151384000D02*
X86174000Y-140508000D01*
X85177000Y-139511000D02*
X77356000Y-139511000D01*
X86174000Y-140508000D02*
X85177000Y-139511000D01*
D52*
X81534000Y-151384000D02*
X79874000Y-151384000D01*
D50*
X86547000Y-148557000D02*
X87849000Y-149859000D01*
X86174000Y-148557000D02*
X86547000Y-148557000D01*
D53*
X86174000Y-151384000D02*
X84499000Y-151384000D01*
X84499000Y-151384000D02*
X81534000Y-151384000D01*
D50*
X87849000Y-152909000D02*
X85998700Y-152909000D01*
X84499000Y-152909000D02*
X85998700Y-152909000D01*
X84499000Y-152909000D02*
X84499000Y-151384000D01*
X84499000Y-151384000D02*
X84499000Y-149859000D01*
X115265000Y-111564000D02*
X115265000Y-113592000D01*
X121431000Y-115694000D02*
X121431000Y-119572000D01*
X120165500Y-114428500D02*
X121431000Y-115694000D01*
X116101500Y-114428500D02*
X120165500Y-114428500D01*
X115265000Y-113592000D02*
X116101500Y-114428500D01*
X121483000Y-123445500D02*
X121483000Y-119624000D01*
X121483000Y-119624000D02*
X121431000Y-119572000D01*
X121431000Y-119572000D02*
X130071500Y-119572000D01*
X130071500Y-119572000D02*
X130135000Y-119508500D01*
X112865000Y-99764000D02*
X112865000Y-94561000D01*
X112865000Y-94561000D02*
X112776000Y-94472000D01*
X91313000Y-94235500D02*
X96729500Y-94235500D01*
X96729500Y-94235500D02*
X96734000Y-94231000D01*
X91313000Y-92562000D02*
X91313000Y-94235500D01*
X91313000Y-94235500D02*
X91313000Y-95418000D01*
X91313000Y-95418000D02*
X91162000Y-95569000D01*
X96734000Y-85731000D02*
X100822200Y-85731000D01*
X100822200Y-85731000D02*
X100848800Y-85704400D01*
X92583000Y-92562000D02*
X94089500Y-92562000D01*
X96734000Y-89028500D02*
X96734000Y-85731000D01*
X95908500Y-89854000D02*
X96734000Y-89028500D01*
X95400500Y-89854000D02*
X95908500Y-89854000D01*
X94702000Y-90552500D02*
X95400500Y-89854000D01*
X94702000Y-91949500D02*
X94702000Y-90552500D01*
X94089500Y-92562000D02*
X94702000Y-91949500D01*
X87503000Y-92562000D02*
X87503000Y-95122600D01*
X87209000Y-95416600D02*
X86380200Y-95416600D01*
X87503000Y-95122600D02*
X87209000Y-95416600D01*
X87598000Y-92657000D02*
X87503000Y-92562000D01*
M02*
