G04 #@! TF.FileFunction,Copper,L2,Bot,Signal*
%FSLAX46Y46*%
G04 Gerber Fmt 4.6, Leading zero omitted, Abs format (unit mm)*
G04 Created by KiCad (PCBNEW 4.0.7-e2-6376~61~ubuntu18.04.1) date Wed Jan  8 20:26:52 2020*
%MOMM*%
%LPD*%
G01*
G04 APERTURE LIST*
%ADD10C,0.100000*%
%ADD11O,1.500000X2.000000*%
%ADD12R,1.500000X2.000000*%
%ADD13C,6.200000*%
%ADD14C,3.000000*%
%ADD15R,3.000000X3.000000*%
%ADD16C,2.000000*%
%ADD17R,2.000000X2.000000*%
%ADD18R,1.700000X1.700000*%
%ADD19O,1.700000X1.700000*%
%ADD20C,1.524000*%
%ADD21C,0.600000*%
%ADD22C,0.500000*%
%ADD23C,0.250000*%
%ADD24C,1.000000*%
G04 APERTURE END LIST*
D10*
D11*
X82550000Y-133900000D03*
X82550000Y-131360000D03*
X85090000Y-133900000D03*
X85090000Y-131360000D03*
X87630000Y-133900000D03*
X87630000Y-131360000D03*
X90170000Y-133900000D03*
X90170000Y-131360000D03*
X92710000Y-133900000D03*
X92710000Y-131360000D03*
X95250000Y-133900000D03*
X95250000Y-131360000D03*
X97790000Y-133900000D03*
X97790000Y-131360000D03*
X100330000Y-133900000D03*
X100330000Y-131360000D03*
X102870000Y-133900000D03*
X102870000Y-131360000D03*
X105410000Y-133900000D03*
X105410000Y-131360000D03*
X107950000Y-133900000D03*
X107950000Y-131360000D03*
X110490000Y-133900000D03*
X110490000Y-131360000D03*
X113030000Y-133900000D03*
X113030000Y-131360000D03*
X115570000Y-133900000D03*
X115570000Y-131360000D03*
X118110000Y-133900000D03*
X118110000Y-131360000D03*
X120650000Y-133900000D03*
X120650000Y-131360000D03*
X123190000Y-133900000D03*
X123190000Y-131360000D03*
X125730000Y-133900000D03*
X125730000Y-131360000D03*
X128270000Y-133900000D03*
X128270000Y-131360000D03*
X130810000Y-133900000D03*
D12*
X130810000Y-131360000D03*
D13*
X135680000Y-83630000D03*
X77680000Y-83630000D03*
X77680000Y-132630000D03*
X135680000Y-132630000D03*
D14*
X145034000Y-135796000D03*
X145034000Y-140796000D03*
D15*
X145034000Y-145796000D03*
D14*
X145034000Y-117762000D03*
X145034000Y-122762000D03*
D15*
X145034000Y-127762000D03*
D16*
X124921000Y-77470000D03*
D17*
X129921000Y-77470000D03*
D16*
X67524000Y-107173000D03*
D17*
X67524000Y-102173000D03*
D16*
X67524000Y-96251000D03*
D17*
X67524000Y-91251000D03*
D18*
X98425000Y-118110000D03*
D19*
X98425000Y-115570000D03*
X100965000Y-118110000D03*
X100965000Y-115570000D03*
X103505000Y-118110000D03*
X103505000Y-115570000D03*
D16*
X67818000Y-144446000D03*
D17*
X67818000Y-139446000D03*
D16*
X145034000Y-87710000D03*
D17*
X145034000Y-92710000D03*
D14*
X145034000Y-100236000D03*
X145034000Y-105236000D03*
D15*
X145034000Y-110236000D03*
D18*
X130643000Y-84393000D03*
D19*
X130643000Y-86933000D03*
X130643000Y-89473000D03*
D18*
X105918000Y-76962000D03*
D19*
X105918000Y-79502000D03*
D16*
X67564000Y-125904000D03*
D17*
X67564000Y-120904000D03*
D18*
X128524000Y-111506000D03*
D19*
X125984000Y-111506000D03*
X123444000Y-111506000D03*
D18*
X132334000Y-154432000D03*
D19*
X132334000Y-151892000D03*
D18*
X130135000Y-119508500D03*
D19*
X130135000Y-122048500D03*
D18*
X118618000Y-92075000D03*
D19*
X118618000Y-94615000D03*
D18*
X122478800Y-95465900D03*
D19*
X122478800Y-92925900D03*
X122478800Y-90385900D03*
D18*
X109728000Y-95631000D03*
D19*
X107188000Y-95631000D03*
D16*
X98990800Y-152465000D03*
D17*
X93990800Y-152465000D03*
D20*
X86233000Y-112014000D03*
X96393000Y-112014000D03*
X98933000Y-112014000D03*
X88773000Y-112014000D03*
X91313000Y-112014000D03*
X93853000Y-112014000D03*
X101473000Y-112014000D03*
X104013000Y-112014000D03*
X86233000Y-99314000D03*
X88773000Y-99314000D03*
X91313000Y-99314000D03*
X93853000Y-99314000D03*
X96393000Y-99314000D03*
X98933000Y-99314000D03*
X101473000Y-99314000D03*
X104013000Y-99314000D03*
D21*
X105522400Y-73090000D03*
X111212000Y-117540000D03*
X116520600Y-77027000D03*
X106167000Y-105664000D03*
X88199600Y-90082600D03*
X110958000Y-97677200D03*
X135951600Y-103366800D03*
X111288200Y-101665000D03*
X133665600Y-111444000D03*
X120446600Y-129282400D03*
X115033800Y-102583800D03*
X89598000Y-96442000D03*
X112898000Y-107142000D03*
X87503000Y-90805000D03*
X114046000Y-107061000D03*
X87463000Y-89193600D03*
X91247600Y-117362200D03*
X133698000Y-79442000D03*
X125698000Y-81442000D03*
X122098000Y-98742000D03*
X121298000Y-108842000D03*
X145991600Y-78335600D03*
X146698000Y-96442000D03*
X138298000Y-98042000D03*
X122398000Y-108842000D03*
X117485800Y-104001800D03*
X111872400Y-139358600D03*
X116216200Y-107264000D03*
X115580800Y-106465600D03*
D22*
X140716000Y-135802600D02*
X145027400Y-135802600D01*
X145027400Y-135802600D02*
X145034000Y-135796000D01*
X105522400Y-73090000D02*
X105522400Y-74676000D01*
D23*
X109243500Y-117857500D02*
X110894500Y-117857500D01*
X110894500Y-117857500D02*
X111212000Y-117540000D01*
X107950000Y-133900000D02*
X107996500Y-133900000D01*
X107996500Y-133900000D02*
X109243500Y-132653000D01*
X108353000Y-115570000D02*
X103505000Y-115570000D01*
X109243500Y-116460500D02*
X108353000Y-115570000D01*
X109243500Y-132653000D02*
X109243500Y-117857500D01*
X109243500Y-117857500D02*
X109243500Y-116460500D01*
D22*
X115443000Y-75949400D02*
X115443000Y-75311000D01*
X116520600Y-77027000D02*
X115443000Y-75949400D01*
X145034000Y-100236000D02*
X142676000Y-100236000D01*
X142676000Y-100236000D02*
X141819000Y-99379000D01*
X141819000Y-99379000D02*
X141819000Y-96127800D01*
X141819000Y-96127800D02*
X136815200Y-91124000D01*
X136815200Y-91124000D02*
X132294000Y-91124000D01*
X132294000Y-91124000D02*
X130643000Y-89473000D01*
X107950000Y-133900000D02*
X107950000Y-133890000D01*
D23*
X104013000Y-99314000D02*
X106167000Y-101468000D01*
X106167000Y-101468000D02*
X106167000Y-105664000D01*
D22*
X115443000Y-75311000D02*
X115380000Y-75247500D01*
X115380000Y-75247500D02*
X114820538Y-74688527D01*
X114820538Y-74688527D02*
X114808000Y-74676000D01*
X114808000Y-74676000D02*
X105522400Y-74676000D01*
X105522400Y-74676000D02*
X104267000Y-74676000D01*
X115443000Y-78297000D02*
X115443000Y-75311000D01*
X115697000Y-80137000D02*
X115443000Y-79883000D01*
X115443000Y-79883000D02*
X115443000Y-78297000D01*
X121793000Y-80137000D02*
X115697000Y-80137000D01*
X125730000Y-133900000D02*
X125730000Y-138303000D01*
X125730000Y-138303000D02*
X127381000Y-139954000D01*
X127381000Y-139954000D02*
X138557000Y-139954000D01*
X138557000Y-139954000D02*
X140716000Y-137795000D01*
X140716000Y-137795000D02*
X140716000Y-135802600D01*
X140716000Y-135802600D02*
X140716000Y-96520000D01*
X140716000Y-96520000D02*
X136525000Y-92329000D01*
X136525000Y-92329000D02*
X128651000Y-92329000D01*
X128651000Y-92329000D02*
X127762000Y-91440000D01*
X127762000Y-91440000D02*
X127762000Y-86106000D01*
X127762000Y-86106000D02*
X121793000Y-80137000D01*
X104140000Y-79502000D02*
X105918000Y-79502000D01*
X103759000Y-79121000D02*
X104140000Y-79502000D01*
X103759000Y-75184000D02*
X103759000Y-79121000D01*
X104267000Y-74676000D02*
X103759000Y-75184000D01*
D23*
X118618000Y-94615000D02*
X116887400Y-94615000D01*
X116012600Y-90082600D02*
X88199600Y-90082600D01*
X116800000Y-90870000D02*
X116012600Y-90082600D01*
X116800000Y-94527600D02*
X116800000Y-90870000D01*
X116887400Y-94615000D02*
X116800000Y-94527600D01*
X111008800Y-97728000D02*
X110958000Y-97677200D01*
X135570600Y-97728000D02*
X111008800Y-97728000D01*
X135926200Y-98083600D02*
X135570600Y-97728000D01*
X135926200Y-103341400D02*
X135926200Y-98083600D01*
X135951600Y-103366800D02*
X135926200Y-103341400D01*
X111313600Y-101690400D02*
X111288200Y-101665000D01*
X118070000Y-101690400D02*
X111313600Y-101690400D01*
X119365400Y-102985800D02*
X118070000Y-101690400D01*
X119365400Y-109361200D02*
X119365400Y-102985800D01*
X119721000Y-109716800D02*
X119365400Y-109361200D01*
X133081400Y-109716800D02*
X119721000Y-109716800D01*
X133640200Y-110275600D02*
X133081400Y-109716800D01*
X133640200Y-111418600D02*
X133640200Y-110275600D01*
X133665600Y-111444000D02*
X133640200Y-111418600D01*
X116999000Y-102583800D02*
X115033800Y-102583800D01*
X118229500Y-103814300D02*
X116999000Y-102583800D01*
X118229500Y-127065300D02*
X118229500Y-103814300D01*
X120446600Y-129282400D02*
X118229500Y-127065300D01*
X90898000Y-97742000D02*
X89598000Y-96442000D01*
X98098000Y-97742000D02*
X90898000Y-97742000D01*
X98598000Y-97242000D02*
X98098000Y-97742000D01*
X104498000Y-97242000D02*
X98598000Y-97242000D01*
X107098000Y-99842000D02*
X104498000Y-97242000D01*
X107098000Y-104542000D02*
X107098000Y-99842000D01*
X108298000Y-105742000D02*
X107098000Y-104542000D01*
X112398000Y-105742000D02*
X108298000Y-105742000D01*
X112898000Y-106242000D02*
X112398000Y-105742000D01*
X112898000Y-107142000D02*
X112898000Y-106242000D01*
X97536000Y-90805000D02*
X87503000Y-90805000D01*
X98552000Y-91821000D02*
X97536000Y-90805000D01*
X98552000Y-96139000D02*
X98552000Y-91821000D01*
X99060000Y-96647000D02*
X98552000Y-96139000D01*
X104902000Y-96647000D02*
X99060000Y-96647000D01*
X107696000Y-99441000D02*
X104902000Y-96647000D01*
X107696000Y-104394000D02*
X107696000Y-99441000D01*
X108331000Y-105029000D02*
X107696000Y-104394000D01*
X113030000Y-105029000D02*
X108331000Y-105029000D01*
X113919000Y-105918000D02*
X113030000Y-105029000D01*
X113919000Y-106934000D02*
X113919000Y-105918000D01*
X114046000Y-107061000D02*
X113919000Y-106934000D01*
X65619000Y-89193600D02*
X87463000Y-89193600D01*
X65111000Y-89701600D02*
X65619000Y-89193600D01*
X65111000Y-114009400D02*
X65111000Y-89701600D01*
X66660400Y-115558800D02*
X65111000Y-114009400D01*
X89444200Y-115558800D02*
X66660400Y-115558800D01*
X91247600Y-117362200D02*
X89444200Y-115558800D01*
X127698000Y-79442000D02*
X133698000Y-79442000D01*
X125698000Y-81442000D02*
X127698000Y-79442000D01*
X121998000Y-98842000D02*
X122098000Y-98742000D01*
X121998000Y-108142000D02*
X121998000Y-98842000D01*
X121298000Y-108842000D02*
X121998000Y-108142000D01*
X147598000Y-79942000D02*
X145991600Y-78335600D01*
X147598000Y-95542000D02*
X147598000Y-79942000D01*
X146698000Y-96442000D02*
X147598000Y-95542000D01*
X138298000Y-107242000D02*
X138298000Y-98042000D01*
X136498000Y-109042000D02*
X138298000Y-107242000D01*
X122598000Y-109042000D02*
X136498000Y-109042000D01*
X122398000Y-108842000D02*
X122598000Y-109042000D01*
X111872400Y-139358600D02*
X114310800Y-136920200D01*
X114310800Y-136920200D02*
X114310800Y-128919200D01*
X114310800Y-128919200D02*
X115022000Y-128208000D01*
X115022000Y-128208000D02*
X116546000Y-128208000D01*
X116546000Y-128208000D02*
X117485800Y-127268200D01*
X117485800Y-127268200D02*
X117485800Y-104001800D01*
X109291700Y-114188500D02*
X116216200Y-107264000D01*
X97339400Y-114188500D02*
X109291700Y-114188500D01*
X92710000Y-118817900D02*
X97339400Y-114188500D01*
X92710000Y-131360000D02*
X92710000Y-118817900D01*
X123444000Y-112776000D02*
X123444000Y-111506000D01*
X123952000Y-113284000D02*
X123444000Y-112776000D01*
X124968000Y-113284000D02*
X123952000Y-113284000D01*
X126746000Y-115062000D02*
X124968000Y-113284000D01*
X126746000Y-125984000D02*
X126746000Y-115062000D01*
X124206000Y-128524000D02*
X126746000Y-125984000D01*
X122936000Y-128524000D02*
X124206000Y-128524000D01*
X121920000Y-129540000D02*
X122936000Y-128524000D01*
X121920000Y-132842000D02*
X121920000Y-129540000D01*
X120862000Y-133900000D02*
X121920000Y-132842000D01*
X120650000Y-133900000D02*
X120862000Y-133900000D01*
X120650000Y-133900000D02*
X120650000Y-133858000D01*
X125984000Y-113284000D02*
X125984000Y-111506000D01*
X127508000Y-114808000D02*
X125984000Y-113284000D01*
X127508000Y-126238000D02*
X127508000Y-114808000D01*
X124460000Y-129286000D02*
X127508000Y-126238000D01*
X124460000Y-132842000D02*
X124460000Y-129286000D01*
X123402000Y-133900000D02*
X124460000Y-132842000D01*
X123190000Y-133900000D02*
X123402000Y-133900000D01*
D24*
X67524000Y-107173000D02*
X71254000Y-107173000D01*
X98933000Y-106959000D02*
X98933000Y-99314000D01*
X96734000Y-109158000D02*
X98933000Y-106959000D01*
X73239000Y-109158000D02*
X96734000Y-109158000D01*
X71254000Y-107173000D02*
X73239000Y-109158000D01*
X67524000Y-102173000D02*
X73747000Y-102173000D01*
X96393000Y-105181000D02*
X96393000Y-99314000D01*
X94448000Y-107126000D02*
X96393000Y-105181000D01*
X76287000Y-107126000D02*
X94448000Y-107126000D01*
X75525000Y-106364000D02*
X76287000Y-107126000D01*
X75525000Y-103951000D02*
X75525000Y-106364000D01*
X73747000Y-102173000D02*
X75525000Y-103951000D01*
D22*
X105918000Y-75946000D02*
X105918000Y-76962000D01*
X106286300Y-75577700D02*
X105918000Y-75946000D01*
X113931700Y-75577700D02*
X106286300Y-75577700D01*
X114554000Y-76200000D02*
X113931700Y-75577700D01*
X114554000Y-80264000D02*
X114554000Y-76200000D01*
X115316000Y-81026000D02*
X114554000Y-80264000D01*
X121412000Y-81026000D02*
X115316000Y-81026000D01*
X126746000Y-86360000D02*
X121412000Y-81026000D01*
X126746000Y-91694000D02*
X126746000Y-86360000D01*
X128270000Y-93218000D02*
X126746000Y-91694000D01*
X135890000Y-93218000D02*
X128270000Y-93218000D01*
X139700000Y-97028000D02*
X135890000Y-93218000D01*
X139700000Y-137287000D02*
X139700000Y-97028000D01*
X138049000Y-138938000D02*
X139700000Y-137287000D01*
X130556000Y-138938000D02*
X138049000Y-138938000D01*
X130175000Y-138557000D02*
X130556000Y-138938000D01*
X130175000Y-136906000D02*
X130175000Y-138557000D01*
X130238000Y-136842000D02*
X130175000Y-136906000D01*
X130810000Y-136271000D02*
X130238000Y-136842000D01*
X130810000Y-133900000D02*
X130810000Y-136271000D01*
X128270000Y-136144000D02*
X128270000Y-133900000D01*
X129032000Y-136906000D02*
X128270000Y-136144000D01*
X130175000Y-136906000D02*
X129032000Y-136906000D01*
D23*
X91113200Y-125904000D02*
X67564000Y-125904000D01*
X92085800Y-124931400D02*
X91113200Y-125904000D01*
X92085800Y-118378200D02*
X92085800Y-124931400D01*
X96784800Y-113679200D02*
X92085800Y-118378200D01*
X108824400Y-113679200D02*
X96784800Y-113679200D01*
X115072800Y-107430800D02*
X108824400Y-113679200D01*
X115072800Y-106973600D02*
X115072800Y-107430800D01*
X115580800Y-106465600D02*
X115072800Y-106973600D01*
D24*
X67524000Y-96251000D02*
X75699000Y-96251000D01*
X93853000Y-103784000D02*
X93853000Y-99314000D01*
X92289000Y-105348000D02*
X93853000Y-103784000D01*
X79589000Y-105348000D02*
X92289000Y-105348000D01*
X77938000Y-103697000D02*
X79589000Y-105348000D01*
X77938000Y-98490000D02*
X77938000Y-103697000D01*
X75699000Y-96251000D02*
X77938000Y-98490000D01*
X67524000Y-91251000D02*
X78065000Y-91251000D01*
X91313000Y-101625000D02*
X91313000Y-99314000D01*
X90003000Y-102935000D02*
X91313000Y-101625000D01*
X81875000Y-102935000D02*
X90003000Y-102935000D01*
X80224000Y-101284000D02*
X81875000Y-102935000D01*
X80224000Y-93410000D02*
X80224000Y-101284000D01*
X78065000Y-91251000D02*
X80224000Y-93410000D01*
X91313000Y-99314000D02*
X91313000Y-99695000D01*
M02*
